<svg xmlns="http://www.w3.org/2000/svg" xmlns:xlink="http://www.w3.org/1999/xlink" width="500" zoomAndPan="magnify" viewBox="0 0 375 374.999991" height="500" preserveAspectRatio="xMidYMid meet" version="1.0"><defs><g/><clipPath id="dc470801c8"><path d="M 28.816406 20.132812 L 346.066406 20.132812 L 346.066406 337.382812 L 28.816406 337.382812 Z M 28.816406 20.132812 " clip-rule="nonzero"/></clipPath></defs><rect x="-37.5" width="450" fill="#ffffff" y="-37.499999" height="449.999989" fill-opacity="1"/><rect x="-37.5" width="450" fill="#000000" y="-37.499999" height="449.999989" fill-opacity="1"/><g clip-path="url(#dc470801c8)"><path fill="#5a189a" d="M 187.519531 330.015625 C 104.117188 330.015625 36.261719 262.15625 36.261719 178.753906 C 36.261719 95.347656 104.117188 27.5 187.519531 27.5 C 270.925781 27.5 338.78125 95.347656 338.78125 178.753906 C 338.78125 262.15625 270.925781 330.015625 187.519531 330.015625 Z M 187.519531 20.097656 C 100.042969 20.097656 28.867188 91.273438 28.867188 178.753906 C 28.867188 266.238281 100.042969 337.410156 187.519531 337.410156 C 275.003906 337.410156 346.175781 266.238281 346.175781 178.753906 C 346.175781 91.273438 275.003906 20.097656 187.519531 20.097656 " fill-opacity="1" fill-rule="nonzero"/></g><path fill="#5a189a" d="M 187.519531 25.386719 C 102.957031 25.386719 34.15625 94.1875 34.15625 178.753906 C 34.15625 263.320312 102.957031 332.125 187.519531 332.125 C 272.089844 332.125 340.890625 263.320312 340.890625 178.753906 C 340.890625 94.1875 272.089844 25.386719 187.519531 25.386719 Z M 187.519531 335.304688 C 101.203125 335.304688 30.972656 265.074219 30.972656 178.753906 C 30.972656 92.433594 101.203125 22.207031 187.519531 22.207031 C 273.839844 22.207031 344.070312 92.433594 344.070312 178.753906 C 344.070312 265.074219 273.839844 335.304688 187.519531 335.304688 " fill-opacity="1" fill-rule="nonzero"/><g fill="#ff6d00" fill-opacity="1"><g transform="translate(61.442645, 200.967006)"><g><path d="M 23.5 -62.484375 L 27.453125 -62.484375 C 28.410156 -62.484375 29.28125 -62.175781 30.0625 -61.5625 C 30.851562 -60.945312 31.359375 -60.1875 31.578125 -59.28125 C 34.492188 -48.613281 38.847656 -32.613281 44.640625 -11.28125 L 44.546875 -11.28125 C 47.804688 0.507812 52.632812 18.191406 59.03125 41.765625 C 59.09375 41.929688 59.125 42.128906 59.125 42.359375 C 59.125 43.816406 58.082031 44.910156 56 45.640625 C 55.269531 45.867188 54.625 45.984375 54.0625 45.984375 C 52.65625 45.984375 51.5625 45.335938 50.78125 44.046875 C 47.582031 32.253906 42.753906 14.566406 36.296875 -9.015625 L 36.046875 -10.015625 C 35.421875 -12.265625 34.351562 -13.445312 32.84375 -13.5625 L 30.65625 -13.8125 L 25.09375 -13.8125 C 23.238281 -13.863281 21.382812 -13.890625 19.53125 -13.890625 C 17.789062 -13.890625 16.613281 -13.359375 16 -12.296875 C 15.382812 -11.171875 14.960938 -10.328125 14.734375 -9.765625 C 14.234375 -7.972656 13.476562 -5.304688 12.46875 -1.765625 C 12.1875 -0.984375 11.285156 -0.476562 9.765625 -0.25 C 8.304688 0.03125 7.015625 -0.191406 5.890625 -0.921875 C 5.390625 -1.203125 4.96875 -1.597656 4.625 -2.109375 C 4.34375 -2.671875 4.175781 -3.316406 4.125 -4.046875 L 4.890625 -6.828125 C 5.390625 -8.617188 5.976562 -10.722656 6.65625 -13.140625 C 7.4375 -16.003906 8.191406 -18.753906 8.921875 -21.390625 L 9.9375 -25.34375 C 12.070312 -32.863281 15.21875 -44.175781 19.375 -59.28125 C 19.59375 -60.125 20.039062 -60.828125 20.71875 -61.390625 C 21.445312 -62.003906 22.234375 -62.367188 23.078125 -62.484375 Z M 21.640625 -22.5625 L 28.546875 -22.5625 C 29.054688 -22.5625 29.816406 -22.734375 30.828125 -23.078125 C 31.554688 -23.296875 31.921875 -23.882812 31.921875 -24.84375 C 31.921875 -25.289062 31.835938 -25.796875 31.671875 -26.359375 C 30.878906 -29.273438 29.695312 -33.625 28.125 -39.40625 C 28.007812 -40.082031 27.304688 -40.726562 26.015625 -41.34375 C 25.679688 -41.457031 25.347656 -41.515625 25.015625 -41.515625 C 24.171875 -41.566406 23.441406 -40.921875 22.828125 -39.578125 L 19.28125 -26.953125 C 19.164062 -26.554688 19.140625 -26.132812 19.203125 -25.6875 C 19.203125 -25.238281 19.226562 -24.757812 19.28125 -24.25 C 19.507812 -23.125 20.296875 -22.5625 21.640625 -22.5625 Z M 31.078125 -83.28125 C 31.128906 -83.226562 31.1875 -83.203125 31.25 -83.203125 C 31.351562 -83.203125 31.4375 -83.175781 31.5 -83.125 L 31.671875 -82.953125 C 31.671875 -82.890625 31.695312 -82.832031 31.75 -82.78125 C 31.75 -82.726562 31.773438 -82.703125 31.828125 -82.703125 L 31.828125 -82.53125 C 38.285156 -59.507812 47.941406 -24.984375 60.796875 21.046875 C 60.859375 21.109375 60.890625 21.195312 60.890625 21.3125 L 60.890625 21.46875 C 60.890625 21.582031 60.859375 21.671875 60.796875 21.734375 C 60.796875 21.785156 60.769531 21.835938 60.71875 21.890625 L 60.375 22.234375 L 60.21875 22.234375 C 60.101562 22.285156 60.015625 22.3125 59.953125 22.3125 C 59.898438 22.3125 59.816406 22.285156 59.703125 22.234375 C 59.648438 22.234375 59.59375 22.203125 59.53125 22.140625 C 59.476562 22.140625 59.425781 22.113281 59.375 22.0625 C 59.3125 22.007812 59.253906 21.925781 59.203125 21.8125 L 59.203125 21.734375 C 59.148438 21.734375 59.125 21.703125 59.125 21.640625 C 52.71875 -1.378906 43.054688 -35.9375 30.140625 -82.03125 C 30.140625 -82.082031 30.113281 -82.132812 30.0625 -82.1875 L 30.0625 -82.4375 C 30.0625 -82.5 30.085938 -82.554688 30.140625 -82.609375 C 30.140625 -82.722656 30.171875 -82.804688 30.234375 -82.859375 C 30.234375 -82.921875 30.257812 -82.976562 30.3125 -83.03125 C 30.375 -83.09375 30.429688 -83.125 30.484375 -83.125 C 30.535156 -83.175781 30.59375 -83.203125 30.65625 -83.203125 L 30.734375 -83.203125 L 30.828125 -83.28125 Z M 31.078125 -83.28125 "/></g></g></g><g fill="#ff6d00" fill-opacity="1"><g transform="translate(175.594973, 200.967006)"><g><path d="M -9.09375 -62.234375 C -1.007812 -62.179688 15.242188 -62.15625 39.671875 -62.15625 C 40.003906 -62.207031 40.335938 -62.207031 40.671875 -62.15625 C 41.066406 -62.15625 41.429688 -62.097656 41.765625 -61.984375 C 42.109375 -61.867188 42.421875 -61.726562 42.703125 -61.5625 C 43.035156 -61.332031 43.3125 -61.078125 43.53125 -60.796875 C 43.757812 -60.578125 43.957031 -60.296875 44.125 -59.953125 C 44.289062 -59.617188 44.429688 -59.285156 44.546875 -58.953125 L 44.71875 -58.4375 L 44.71875 -57.9375 C 44.71875 -56.082031 44.691406 -53.304688 44.640625 -49.609375 C 44.691406 -49.265625 44.691406 -48.894531 44.640625 -48.5 C 44.578125 -48.164062 44.488281 -47.832031 44.375 -47.5 C 44.320312 -47.332031 44.238281 -47.160156 44.125 -46.984375 C 44.007812 -46.816406 43.925781 -46.675781 43.875 -46.5625 C 38.425781 -39.269531 30.257812 -28.296875 19.375 -13.640625 C 19.144531 -12.910156 19.113281 -12.296875 19.28125 -11.796875 C 19.394531 -11.285156 19.617188 -10.832031 19.953125 -10.4375 C 20.515625 -9.769531 21.273438 -9.320312 22.234375 -9.09375 C 23.242188 -8.875 23.972656 -8.765625 24.421875 -8.765625 L 62.578125 -8.765625 C 64.253906 -8.253906 65.09375 -6.875 65.09375 -4.625 L 65.09375 -4.046875 C 64.925781 -1.460938 64.195312 -0.171875 62.90625 -0.171875 L 13.734375 -0.171875 C 13.335938 -0.171875 13.082031 -0.140625 12.96875 -0.078125 C 12.851562 -0.0234375 12.738281 -0.0546875 12.625 -0.171875 C 12.519531 -0.222656 12.578125 -0.25 12.796875 -0.25 L 13.46875 -0.25 C 13.132812 -0.195312 12.910156 -0.195312 12.796875 -0.25 C 12.679688 -0.3125 12.539062 -0.285156 12.375 -0.171875 C 12.257812 -0.0546875 12.34375 -0.0234375 12.625 -0.078125 L 13.21875 -0.078125 C 12.882812 -0.078125 12.660156 -0.109375 12.546875 -0.171875 C 12.492188 -0.222656 12.378906 -0.25 12.203125 -0.25 C 12.035156 -0.195312 12.09375 -0.171875 12.375 -0.171875 C 12.65625 -0.109375 12.878906 -0.078125 13.046875 -0.078125 C 12.710938 -0.140625 12.488281 -0.171875 12.375 -0.171875 C 12.320312 -0.222656 12.210938 -0.25 12.046875 -0.25 C 11.984375 -0.3125 12.007812 -0.3125 12.125 -0.25 L 12.375 -0.25 C 12.039062 -0.3125 11.707031 -0.394531 11.375 -0.5 C 11.03125 -0.613281 10.71875 -0.785156 10.4375 -1.015625 C 10.15625 -1.234375 9.90625 -1.484375 9.6875 -1.765625 C 9.457031 -2.046875 9.257812 -2.351562 9.09375 -2.6875 C 8.925781 -3.03125 8.816406 -3.367188 8.765625 -3.703125 C 8.765625 -4.035156 8.734375 -4.398438 8.671875 -4.796875 C 8.671875 -4.960938 8.703125 -5.132812 8.765625 -5.3125 C 8.867188 -5.476562 8.921875 -5.644531 8.921875 -5.8125 L 8.921875 -12.203125 C 8.921875 -12.546875 8.953125 -12.882812 9.015625 -13.21875 C 9.066406 -13.613281 9.148438 -13.976562 9.265625 -14.3125 C 9.265625 -14.476562 9.320312 -14.648438 9.4375 -14.828125 C 9.539062 -14.929688 9.648438 -15.070312 9.765625 -15.25 C 15.210938 -22.539062 23.382812 -33.539062 34.28125 -48.25 C 34.5 -49.039062 34.582031 -49.742188 34.53125 -50.359375 C 34.414062 -50.921875 34.21875 -51.398438 33.9375 -51.796875 C 33.207031 -52.691406 32.28125 -53.222656 31.15625 -53.390625 L 29.390625 -53.640625 L -8.921875 -53.640625 C -10.722656 -54.035156 -11.625 -55.46875 -11.625 -57.9375 L -11.625 -58.015625 C -11.625 -60.429688 -10.78125 -61.835938 -9.09375 -62.234375 Z M 3.453125 -66.703125 L 44.125 -66.703125 C 45.414062 -66.703125 46.484375 -66.503906 47.328125 -66.109375 C 48.222656 -65.773438 48.894531 -65.296875 49.34375 -64.671875 C 49.789062 -64.054688 50.101562 -63.550781 50.28125 -63.15625 C 50.445312 -62.707031 50.472656 -61.921875 50.359375 -60.796875 L 50.359375 -50.015625 C 50.472656 -48.453125 50.304688 -47.078125 49.859375 -45.890625 C 49.410156 -44.773438 48.816406 -43.597656 48.078125 -42.359375 C 47.742188 -41.960938 46.707031 -40.613281 44.96875 -38.3125 C 43.226562 -36.007812 41.289062 -33.484375 39.15625 -30.734375 L 36.46875 -27.03125 C 35.5625 -25.851562 34.691406 -24.726562 33.859375 -23.65625 C 32.285156 -21.582031 30.960938 -19.84375 29.890625 -18.4375 C 28.878906 -17.039062 28.347656 -16.285156 28.296875 -16.171875 C 28.128906 -15.890625 28.015625 -15.609375 27.953125 -15.328125 C 27.898438 -14.992188 27.898438 -14.710938 27.953125 -14.484375 C 28.015625 -14.316406 28.101562 -14.175781 28.21875 -14.0625 C 28.269531 -13.945312 28.378906 -13.835938 28.546875 -13.734375 C 28.710938 -13.617188 28.910156 -13.5625 29.140625 -13.5625 C 29.421875 -13.5 29.726562 -13.46875 30.0625 -13.46875 L 69.8125 -13.46875 C 69.863281 -13.414062 69.945312 -13.363281 70.0625 -13.3125 C 70.125 -13.3125 70.15625 -13.253906 70.15625 -13.140625 L 70.3125 -12.96875 C 70.3125 -12.914062 70.34375 -12.859375 70.40625 -12.796875 L 70.40625 -12.546875 C 70.34375 -12.492188 70.3125 -12.4375 70.3125 -12.375 C 70.3125 -12.257812 70.285156 -12.175781 70.234375 -12.125 L 70.0625 -11.953125 C 70.007812 -11.898438 69.953125 -11.875 69.890625 -11.875 C 69.835938 -11.820312 69.785156 -11.796875 69.734375 -11.796875 L 30.3125 -11.796875 C 30.144531 -11.734375 29.976562 -11.703125 29.8125 -11.703125 C 29.476562 -11.703125 29.171875 -11.734375 28.890625 -11.796875 C 28.441406 -11.898438 28.019531 -12.035156 27.625 -12.203125 C 27.28125 -12.429688 27 -12.6875 26.78125 -12.96875 C 26.550781 -13.300781 26.410156 -13.640625 26.359375 -13.984375 C 26.128906 -14.648438 26.101562 -15.320312 26.28125 -16 C 26.445312 -16.613281 26.753906 -17.175781 27.203125 -17.6875 L 27.203125 -17.765625 C 31.359375 -23.265625 37.585938 -31.488281 45.890625 -42.4375 C 46.847656 -43.84375 47.578125 -45.050781 48.078125 -46.0625 C 48.535156 -47.070312 48.734375 -48.304688 48.671875 -49.765625 C 48.617188 -49.828125 48.59375 -49.882812 48.59375 -49.9375 L 48.59375 -60.796875 C 48.59375 -61.359375 48.5625 -61.894531 48.5 -62.40625 C 48.394531 -62.851562 48.226562 -63.273438 48 -63.671875 C 47.71875 -64.003906 47.269531 -64.28125 46.65625 -64.5 C 46.09375 -64.78125 45.25 -64.921875 44.125 -64.921875 L 3.109375 -64.921875 C 3.003906 -64.984375 2.921875 -65.015625 2.859375 -65.015625 L 2.6875 -65.1875 C 2.632812 -65.238281 2.609375 -65.289062 2.609375 -65.34375 C 2.554688 -65.40625 2.53125 -65.492188 2.53125 -65.609375 L 2.53125 -66.015625 C 2.53125 -66.078125 2.554688 -66.132812 2.609375 -66.1875 L 2.78125 -66.359375 C 2.78125 -66.410156 2.835938 -66.46875 2.953125 -66.53125 C 3.003906 -66.582031 3.054688 -66.609375 3.109375 -66.609375 L 3.28125 -66.609375 L 3.375 -66.703125 Z M 3.453125 -66.703125 "/></g></g></g><g fill="#ff6d00" fill-opacity="1"><g transform="translate(117.540296, 200.624987)"><g><path d="M 7.21875 0.328125 C 6.207031 0.328125 5.257812 0.0351562 4.375 -0.546875 C 3.488281 -1.128906 2.773438 -2.023438 2.234375 -3.234375 C 1.691406 -4.453125 1.421875 -5.96875 1.421875 -7.78125 C 1.421875 -8.945312 1.5 -10.03125 1.65625 -11.03125 C 1.820312 -12.039062 2.039062 -12.804688 2.3125 -13.328125 C 2.707031 -13.898438 3.59375 -14.65625 4.96875 -15.59375 C 6.34375 -16.539062 7.253906 -17.015625 7.703125 -17.015625 C 8.203125 -17.015625 10.375 -16.726562 14.21875 -16.15625 L 14.21875 -2.15625 L 15.484375 -1.640625 L 15.484375 -0.265625 C 13.523438 0.128906 12.4375 0.328125 12.21875 0.328125 C 12.113281 0.328125 11.875 0.15625 11.5 -0.1875 C 11.132812 -0.53125 10.953125 -0.765625 10.953125 -0.890625 L 10.953125 -2.34375 C 10.796875 -2.21875 10.171875 -1.738281 9.078125 -0.90625 C 7.992188 -0.0820312 7.375 0.328125 7.21875 0.328125 Z M 7.453125 -2.421875 C 7.722656 -2.421875 8.847656 -2.914062 10.828125 -3.90625 L 10.828125 -14.15625 C 10.210938 -14.351562 9.40625 -14.53125 8.40625 -14.6875 C 7.414062 -14.851562 6.75 -14.910156 6.40625 -14.859375 C 5.9375 -14.785156 5.582031 -14.25 5.34375 -13.25 C 5.101562 -12.257812 4.984375 -10.523438 4.984375 -8.046875 C 4.984375 -6.773438 5.125 -5.71875 5.40625 -4.875 C 5.695312 -4.03125 6.035156 -3.410156 6.421875 -3.015625 C 6.804688 -2.617188 7.148438 -2.421875 7.453125 -2.421875 Z M 7.453125 -2.421875 "/></g></g></g><g fill="#ff6d00" fill-opacity="1"><g transform="translate(134.214268, 200.624987)"><g><path d="M 8.1875 0.328125 C 7.664062 0.328125 6.625 0.269531 5.0625 0.15625 C 3.5 0.0507812 2.304688 -0.0507812 1.484375 -0.15625 L 1.5625 -5.515625 L 3.421875 -5.546875 L 4.203125 -2.71875 C 4.773438 -2.519531 5.453125 -2.335938 6.234375 -2.171875 C 7.015625 -2.015625 7.59375 -1.9375 7.96875 -1.9375 C 8.164062 -1.9375 8.40625 -2.207031 8.6875 -2.75 C 8.976562 -3.300781 9.125 -3.785156 9.125 -4.203125 C 9.125 -4.648438 9.015625 -5.03125 8.796875 -5.34375 C 8.585938 -5.65625 8.257812 -5.953125 7.8125 -6.234375 C 7.375 -6.523438 6.617188 -6.953125 5.546875 -7.515625 C 4.035156 -8.335938 2.992188 -9.054688 2.421875 -9.671875 C 1.847656 -10.296875 1.5625 -11.046875 1.5625 -11.921875 C 1.5625 -12.765625 1.625 -13.367188 1.75 -13.734375 C 2.144531 -14.359375 2.804688 -15.054688 3.734375 -15.828125 C 4.671875 -16.597656 5.335938 -16.984375 5.734375 -16.984375 C 6.554688 -16.984375 7.617188 -16.953125 8.921875 -16.890625 C 10.222656 -16.828125 11.222656 -16.757812 11.921875 -16.6875 L 11.796875 -12.140625 L 9.71875 -12.140625 L 9.453125 -14.109375 C 9.253906 -14.179688 8.609375 -14.296875 7.515625 -14.453125 C 6.429688 -14.617188 5.75 -14.703125 5.46875 -14.703125 C 4.925781 -14.703125 4.65625 -14.179688 4.65625 -13.140625 C 4.65625 -12.671875 4.832031 -12.269531 5.1875 -11.9375 C 5.550781 -11.601562 5.960938 -11.296875 6.421875 -11.015625 C 6.878906 -10.742188 7.179688 -10.5625 7.328125 -10.46875 L 8.34375 -9.859375 C 9.675781 -9.117188 10.734375 -8.421875 11.515625 -7.765625 C 12.304688 -7.109375 12.703125 -6.359375 12.703125 -5.515625 C 12.703125 -4.941406 12.613281 -4.304688 12.4375 -3.609375 C 12.039062 -2.890625 11.363281 -2.050781 10.40625 -1.09375 C 9.445312 -0.144531 8.707031 0.328125 8.1875 0.328125 Z M 8.1875 0.328125 "/></g></g></g><g fill="#ff6d00" fill-opacity="1"><g transform="translate(147.724647, 200.624987)"><g><path d="M 7.59375 0.328125 C 6.53125 0.328125 5.523438 0.046875 4.578125 -0.515625 C 3.640625 -1.085938 2.878906 -1.96875 2.296875 -3.15625 C 1.710938 -4.351562 1.421875 -5.820312 1.421875 -7.5625 C 1.421875 -8.800781 1.5 -9.945312 1.65625 -11 C 1.820312 -12.050781 2.039062 -12.828125 2.3125 -13.328125 C 2.5625 -13.703125 3.078125 -14.195312 3.859375 -14.8125 C 4.640625 -15.4375 5.429688 -15.984375 6.234375 -16.453125 C 7.046875 -16.929688 7.597656 -17.171875 7.890625 -17.171875 C 9.234375 -17.171875 10.320312 -16.957031 11.15625 -16.53125 C 11.988281 -16.113281 12.632812 -15.304688 13.09375 -14.109375 C 13.550781 -12.921875 13.78125 -11.207031 13.78125 -8.96875 L 4.984375 -8.234375 C 4.984375 -6.742188 5.179688 -5.554688 5.578125 -4.671875 C 5.984375 -3.785156 6.453125 -3.171875 6.984375 -2.828125 C 7.515625 -2.484375 8.003906 -2.3125 8.453125 -2.3125 L 10.203125 -2.390625 L 13.25 -2.5 L 13.25 -0.96875 C 12.332031 -0.664062 11.242188 -0.375 9.984375 -0.09375 C 8.734375 0.1875 7.9375 0.328125 7.59375 0.328125 Z M 10.171875 -10.421875 C 10.171875 -11.910156 9.96875 -13.035156 9.5625 -13.796875 C 9.164062 -14.554688 8.507812 -14.9375 7.59375 -14.9375 C 7.050781 -14.9375 6.582031 -14.847656 6.1875 -14.671875 C 5.863281 -14.523438 5.59375 -13.953125 5.375 -12.953125 C 5.164062 -11.960938 5.0625 -10.894531 5.0625 -9.75 Z M 10.171875 -10.421875 "/></g></g></g><g fill="#ff6d00" fill-opacity="1"><g transform="translate(162.798221, 200.624987)"><g><path d="M 3.828125 0.328125 C 3.710938 0.328125 3.472656 0.15625 3.109375 -0.1875 C 2.742188 -0.53125 2.5625 -0.765625 2.5625 -0.890625 L 2.5625 -14.59375 L 1.265625 -15.046875 L 1.265625 -16.421875 C 3.148438 -16.796875 4.207031 -16.984375 4.4375 -16.984375 C 4.550781 -16.984375 4.828125 -16.78125 5.265625 -16.375 C 5.703125 -15.976562 5.921875 -15.734375 5.921875 -15.640625 L 5.84375 -14.328125 C 7.632812 -16.222656 8.601562 -17.171875 8.75 -17.171875 C 9.144531 -17.171875 9.976562 -16.96875 11.25 -16.5625 C 11.320312 -16.394531 11.375 -16.195312 11.40625 -15.96875 C 11.445312 -15.75 11.46875 -15.566406 11.46875 -15.421875 C 11.46875 -15.265625 11.320312 -14.910156 11.03125 -14.359375 C 10.75 -13.816406 10.5625 -13.523438 10.46875 -13.484375 C 9.644531 -13.804688 8.984375 -13.96875 8.484375 -13.96875 C 8.160156 -13.96875 7.316406 -13.566406 5.953125 -12.765625 L 5.953125 -2.34375 L 7.859375 -1.78125 L 7.859375 -0.265625 C 5.398438 0.128906 4.054688 0.328125 3.828125 0.328125 Z M 3.828125 0.328125 "/></g></g></g><g fill="#ff6d00" fill-opacity="1"><g transform="translate(245.919158, 200.624987)"><g><path d="M 5.921875 6.734375 C 5.816406 6.734375 5.648438 6.519531 5.421875 6.09375 C 5.203125 5.675781 5.09375 5.394531 5.09375 5.25 L 6.84375 -0.03125 C 6.351562 0.0625 6.035156 0.109375 5.890625 0.109375 C 5.804688 0.109375 5.617188 0.0078125 5.328125 -0.1875 L 1.375 -14.5625 L -0.078125 -14.96875 L -0.078125 -16.5 C 1.804688 -16.789062 2.863281 -16.9375 3.09375 -16.9375 C 3.21875 -16.9375 3.484375 -16.789062 3.890625 -16.5 C 4.296875 -16.21875 4.523438 -15.992188 4.578125 -15.828125 L 6.734375 -7.15625 L 7.59375 -3.171875 L 7.96875 -3.171875 L 11.09375 -14.640625 L 8.859375 -14.890625 L 8.859375 -16.6875 L 13.140625 -16.9375 C 13.265625 -16.9375 13.484375 -16.765625 13.796875 -16.421875 C 14.109375 -16.078125 14.25 -15.816406 14.21875 -15.640625 L 9.265625 0 L 8.1875 4.25 L 9.640625 4.921875 L 9.640625 6.296875 C 7.359375 6.585938 6.117188 6.734375 5.921875 6.734375 Z M 5.921875 6.734375 "/></g></g></g><g fill="#ff6d00" fill-opacity="1"><g transform="translate(260.992732, 200.624987)"><g><path d="M 3.65625 6.734375 C 3.53125 6.734375 3.28125 6.5625 2.90625 6.21875 C 2.53125 5.875 2.34375 5.640625 2.34375 5.515625 L 2.53125 -0.484375 L 2.53125 -14.515625 L 1.265625 -15.046875 L 1.265625 -16.421875 C 1.804688 -16.546875 2.445312 -16.675781 3.1875 -16.8125 C 3.9375 -16.945312 4.390625 -17.015625 4.546875 -17.015625 C 4.640625 -17.015625 4.875 -16.835938 5.25 -16.484375 C 5.625 -16.140625 5.8125 -15.90625 5.8125 -15.78125 L 5.8125 -14.328125 L 6.921875 -15.1875 C 8.535156 -16.40625 9.40625 -17.015625 9.53125 -17.015625 C 10.519531 -17.015625 11.457031 -16.722656 12.34375 -16.140625 C 13.226562 -15.554688 13.945312 -14.675781 14.5 -13.5 C 15.0625 -12.320312 15.34375 -10.863281 15.34375 -9.125 C 15.34375 -7.851562 15.257812 -6.707031 15.09375 -5.6875 C 14.9375 -4.675781 14.722656 -3.894531 14.453125 -3.34375 C 14.046875 -2.78125 13.15625 -2.023438 11.78125 -1.078125 C 10.40625 -0.140625 9.492188 0.328125 9.046875 0.328125 C 8.648438 0.328125 7.546875 0.191406 5.734375 -0.078125 L 5.734375 4.0625 L 7.21875 4.65625 L 7.21875 6.140625 C 6.644531 6.265625 6 6.390625 5.28125 6.515625 C 4.5625 6.640625 4.019531 6.710938 3.65625 6.734375 Z M 10.34375 -1.828125 C 10.820312 -1.898438 11.175781 -2.429688 11.40625 -3.421875 C 11.644531 -4.421875 11.765625 -6.160156 11.765625 -8.640625 C 11.765625 -9.898438 11.617188 -10.953125 11.328125 -11.796875 C 11.046875 -12.640625 10.710938 -13.257812 10.328125 -13.65625 C 9.941406 -14.0625 9.601562 -14.265625 9.3125 -14.265625 C 9.113281 -14.265625 7.984375 -13.765625 5.921875 -12.765625 L 5.921875 -2.53125 C 6.535156 -2.332031 7.335938 -2.148438 8.328125 -1.984375 C 9.328125 -1.828125 10 -1.773438 10.34375 -1.828125 Z M 10.34375 -1.828125 "/></g></g></g><g fill="#ff6d00" fill-opacity="1"><g transform="translate(277.741136, 200.624987)"><g><path d="M 3.796875 0.328125 C 3.671875 0.328125 3.429688 0.15625 3.078125 -0.1875 C 2.734375 -0.53125 2.5625 -0.765625 2.5625 -0.890625 L 2.5625 -21.5625 L 1.265625 -22.078125 L 1.265625 -23.453125 C 3.296875 -23.847656 4.425781 -24.046875 4.65625 -24.046875 C 4.78125 -24.046875 5.023438 -23.875 5.390625 -23.53125 C 5.765625 -23.1875 5.953125 -22.953125 5.953125 -22.828125 L 5.765625 -14.40625 L 5.953125 -14.375 C 8.285156 -16.113281 9.53125 -16.984375 9.6875 -16.984375 C 11.46875 -16.984375 12.804688 -16.515625 13.703125 -15.578125 C 14.597656 -14.648438 15.046875 -13.03125 15.046875 -10.71875 L 15.046875 -2.203125 L 16.34375 -1.640625 L 16.34375 -0.265625 C 14.28125 0.128906 13.140625 0.328125 12.921875 0.328125 C 12.796875 0.328125 12.550781 0.15625 12.1875 -0.1875 C 11.832031 -0.53125 11.65625 -0.765625 11.65625 -0.890625 L 11.65625 -10.71875 C 11.65625 -12.257812 11.4375 -13.226562 11 -13.625 C 10.5625 -14.019531 10.0625 -14.21875 9.5 -14.21875 C 9.25 -14.21875 8.066406 -13.75 5.953125 -12.8125 L 5.953125 -2.203125 L 7.21875 -1.640625 L 7.21875 -0.265625 C 5.164062 0.128906 4.023438 0.328125 3.796875 0.328125 Z M 3.796875 0.328125 "/></g></g></g><g fill="#ff6d00" fill-opacity="1"><g transform="translate(295.382797, 200.624987)"><g><path d="M 7.59375 0.328125 C 6.53125 0.328125 5.523438 0.046875 4.578125 -0.515625 C 3.640625 -1.085938 2.878906 -1.96875 2.296875 -3.15625 C 1.710938 -4.351562 1.421875 -5.820312 1.421875 -7.5625 C 1.421875 -8.800781 1.5 -9.945312 1.65625 -11 C 1.820312 -12.050781 2.039062 -12.828125 2.3125 -13.328125 C 2.5625 -13.703125 3.078125 -14.195312 3.859375 -14.8125 C 4.640625 -15.4375 5.429688 -15.984375 6.234375 -16.453125 C 7.046875 -16.929688 7.597656 -17.171875 7.890625 -17.171875 C 9.234375 -17.171875 10.320312 -16.957031 11.15625 -16.53125 C 11.988281 -16.113281 12.632812 -15.304688 13.09375 -14.109375 C 13.550781 -12.921875 13.78125 -11.207031 13.78125 -8.96875 L 4.984375 -8.234375 C 4.984375 -6.742188 5.179688 -5.554688 5.578125 -4.671875 C 5.984375 -3.785156 6.453125 -3.171875 6.984375 -2.828125 C 7.515625 -2.484375 8.003906 -2.3125 8.453125 -2.3125 L 10.203125 -2.390625 L 13.25 -2.5 L 13.25 -0.96875 C 12.332031 -0.664062 11.242188 -0.375 9.984375 -0.09375 C 8.734375 0.1875 7.9375 0.328125 7.59375 0.328125 Z M 10.171875 -10.421875 C 10.171875 -11.910156 9.96875 -13.035156 9.5625 -13.796875 C 9.164062 -14.554688 8.507812 -14.9375 7.59375 -14.9375 C 7.050781 -14.9375 6.582031 -14.847656 6.1875 -14.671875 C 5.863281 -14.523438 5.59375 -13.953125 5.375 -12.953125 C 5.164062 -11.960938 5.0625 -10.894531 5.0625 -9.75 Z M 10.171875 -10.421875 "/></g></g></g><g fill="#ff6d00" fill-opacity="1"><g transform="translate(310.456371, 200.624987)"><g><path d="M 3.828125 0.328125 C 3.710938 0.328125 3.472656 0.15625 3.109375 -0.1875 C 2.742188 -0.53125 2.5625 -0.765625 2.5625 -0.890625 L 2.5625 -14.59375 L 1.265625 -15.046875 L 1.265625 -16.421875 C 3.148438 -16.796875 4.207031 -16.984375 4.4375 -16.984375 C 4.550781 -16.984375 4.828125 -16.78125 5.265625 -16.375 C 5.703125 -15.976562 5.921875 -15.734375 5.921875 -15.640625 L 5.84375 -14.328125 C 7.632812 -16.222656 8.601562 -17.171875 8.75 -17.171875 C 9.144531 -17.171875 9.976562 -16.96875 11.25 -16.5625 C 11.320312 -16.394531 11.375 -16.195312 11.40625 -15.96875 C 11.445312 -15.75 11.46875 -15.566406 11.46875 -15.421875 C 11.46875 -15.265625 11.320312 -14.910156 11.03125 -14.359375 C 10.75 -13.816406 10.5625 -13.523438 10.46875 -13.484375 C 9.644531 -13.804688 8.984375 -13.96875 8.484375 -13.96875 C 8.160156 -13.96875 7.316406 -13.566406 5.953125 -12.765625 L 5.953125 -2.34375 L 7.859375 -1.78125 L 7.859375 -0.265625 C 5.398438 0.128906 4.054688 0.328125 3.828125 0.328125 Z M 3.828125 0.328125 "/></g></g></g></svg>