<svg xmlns="http://www.w3.org/2000/svg" xmlns:xlink="http://www.w3.org/1999/xlink" width="500" zoomAndPan="magnify" viewBox="0 0 375 374.999991" height="500" preserveAspectRatio="xMidYMid meet" version="1.0"><defs><g/><clipPath id="421f6329a5"><path d="M 29.894531 29.917969 L 344.894531 29.917969 L 344.894531 344.917969 L 29.894531 344.917969 Z M 29.894531 29.917969 " clip-rule="nonzero"/></clipPath><clipPath id="327651f067"><path d="M 187.472656 29.917969 C 100.445312 29.917969 29.894531 100.46875 29.894531 187.496094 C 29.894531 274.523438 100.445312 345.070312 187.472656 345.070312 C 274.496094 345.070312 345.046875 274.523438 345.046875 187.496094 C 345.046875 100.46875 274.496094 29.917969 187.472656 29.917969 Z M 187.472656 29.917969 " clip-rule="nonzero"/></clipPath><clipPath id="99499e0492"><path d="M 62.398438 62.421875 L 312.546875 62.421875 L 312.546875 312.570312 L 62.398438 312.570312 Z M 62.398438 62.421875 " clip-rule="nonzero"/></clipPath><clipPath id="8a04a308d9"><path d="M 187.472656 62.421875 C 118.394531 62.421875 62.398438 118.417969 62.398438 187.496094 C 62.398438 256.574219 118.394531 312.570312 187.472656 312.570312 C 256.550781 312.570312 312.546875 256.574219 312.546875 187.496094 C 312.546875 118.417969 256.550781 62.421875 187.472656 62.421875 Z M 187.472656 62.421875 " clip-rule="nonzero"/></clipPath></defs><g clip-path="url(#421f6329a5)"><g clip-path="url(#327651f067)"><path stroke-linecap="butt" transform="matrix(0.75, 0, 0, 0.75, 29.894808, 29.918785)" fill="none" stroke-linejoin="miter" d="M 210.103811 -0.00108854 C 94.067345 -0.00108854 -0.000369503 94.066626 -0.000369503 210.103092 C -0.000369503 326.139558 94.067345 420.202064 210.103811 420.202064 C 326.135069 420.202064 420.202783 326.139558 420.202783 210.103092 C 420.202783 94.066626 326.135069 -0.00108854 210.103811 -0.00108854 Z M 210.103811 -0.00108854 " stroke="#000000" stroke-width="2" stroke-opacity="1" stroke-miterlimit="4"/></g></g><g clip-path="url(#99499e0492)"><g clip-path="url(#8a04a308d9)"><path stroke-linecap="butt" transform="matrix(0.75, 0, 0, 0.75, 62.398272, 62.422246)" fill="none" stroke-linejoin="miter" d="M 166.765856 -0.000495068 C 74.661683 -0.000495068 0.00022013 74.660968 0.00022013 166.765141 C 0.00022013 258.869314 74.661683 333.530777 166.765856 333.530777 C 258.870029 333.530777 333.531492 258.869314 333.531492 166.765141 C 333.531492 74.660968 258.870029 -0.000495068 166.765856 -0.000495068 Z M 166.765856 -0.000495068 " stroke="#000000" stroke-width="2" stroke-opacity="1" stroke-miterlimit="4"/></g></g><g fill="#ff8500" fill-opacity="1"><g transform="translate(37.784945, 178.337434)"><g><path d="M 0.25 -1.609375 L 2.890625 -2.46875 L 9.671875 -25.296875 C 10.578125 -25.441406 11.488281 -25.570312 12.40625 -25.6875 C 13.332031 -25.800781 13.976562 -25.867188 14.34375 -25.890625 C 14.457031 -25.890625 14.6875 -25.78125 15.03125 -25.5625 L 21.953125 -2.46875 L 24.578125 -1.609375 L 24.578125 0 L 14.859375 0 L 14.859375 -1.828125 L 17.75 -2.671875 L 16.09375 -8.578125 L 8.1875 -8.578125 L 6.625 -2.671875 L 9.640625 -1.828125 L 9.640625 0 L 0.25 0 Z M 15.453125 -10.828125 L 12.390625 -22.203125 L 11.890625 -22.203125 L 8.828125 -10.828125 Z M 15.453125 -10.828125 "/></g></g></g><g fill="#ff8500" fill-opacity="1"><g transform="translate(64.313802, 178.337434)"><g><path d="M 8.234375 0.375 C 7.078125 0.375 5.992188 0.046875 4.984375 -0.609375 C 3.984375 -1.273438 3.171875 -2.300781 2.546875 -3.6875 C 1.921875 -5.082031 1.609375 -6.8125 1.609375 -8.875 C 1.609375 -10.207031 1.703125 -11.445312 1.890625 -12.59375 C 2.078125 -13.738281 2.320312 -14.609375 2.625 -15.203125 C 3.082031 -15.847656 4.097656 -16.707031 5.671875 -17.78125 C 7.242188 -18.863281 8.28125 -19.40625 8.78125 -19.40625 C 9.351562 -19.40625 11.832031 -19.078125 16.21875 -18.421875 L 16.21875 -2.46875 L 17.65625 -1.875 L 17.65625 -0.296875 C 15.425781 0.148438 14.179688 0.375 13.921875 0.375 C 13.804688 0.375 13.535156 0.175781 13.109375 -0.21875 C 12.691406 -0.613281 12.484375 -0.878906 12.484375 -1.015625 L 12.484375 -2.671875 C 12.304688 -2.535156 11.59375 -1.992188 10.34375 -1.046875 C 9.101562 -0.0976562 8.398438 0.375 8.234375 0.375 Z M 8.484375 -2.765625 C 8.796875 -2.765625 10.085938 -3.328125 12.359375 -4.453125 L 12.359375 -16.125 C 11.648438 -16.351562 10.726562 -16.5625 9.59375 -16.75 C 8.457031 -16.9375 7.691406 -17 7.296875 -16.9375 C 6.765625 -16.851562 6.363281 -16.242188 6.09375 -15.109375 C 5.820312 -13.984375 5.6875 -12.003906 5.6875 -9.171875 C 5.6875 -7.722656 5.847656 -6.519531 6.171875 -5.5625 C 6.503906 -4.601562 6.890625 -3.894531 7.328125 -3.4375 C 7.765625 -2.988281 8.148438 -2.765625 8.484375 -2.765625 Z M 8.484375 -2.765625 "/></g></g></g><g fill="#ff8500" fill-opacity="1"><g transform="translate(85.452114, 178.337434)"><g><path d="M 9.34375 0.375 C 8.75 0.375 7.554688 0.3125 5.765625 0.1875 C 3.984375 0.0625 2.628906 -0.0546875 1.703125 -0.171875 L 1.78125 -6.28125 L 3.90625 -6.328125 L 4.796875 -3.09375 C 5.453125 -2.875 6.222656 -2.671875 7.109375 -2.484375 C 8.003906 -2.296875 8.660156 -2.203125 9.078125 -2.203125 C 9.304688 -2.203125 9.582031 -2.515625 9.90625 -3.140625 C 10.238281 -3.765625 10.40625 -4.316406 10.40625 -4.796875 C 10.40625 -5.304688 10.28125 -5.738281 10.03125 -6.09375 C 9.789062 -6.445312 9.414062 -6.785156 8.90625 -7.109375 C 8.40625 -7.429688 7.546875 -7.921875 6.328125 -8.578125 C 4.597656 -9.503906 3.40625 -10.320312 2.75 -11.03125 C 2.101562 -11.738281 1.78125 -12.585938 1.78125 -13.578125 C 1.78125 -14.546875 1.851562 -15.242188 2 -15.671875 C 2.445312 -16.367188 3.203125 -17.15625 4.265625 -18.03125 C 5.328125 -18.914062 6.082031 -19.359375 6.53125 -19.359375 C 7.46875 -19.359375 8.675781 -19.320312 10.15625 -19.25 C 11.644531 -19.175781 12.785156 -19.097656 13.578125 -19.015625 L 13.453125 -13.84375 L 11.078125 -13.84375 L 10.78125 -16.09375 C 10.550781 -16.175781 9.8125 -16.304688 8.5625 -16.484375 C 7.320312 -16.671875 6.546875 -16.765625 6.234375 -16.765625 C 5.617188 -16.765625 5.3125 -16.171875 5.3125 -14.984375 C 5.3125 -14.441406 5.515625 -13.976562 5.921875 -13.59375 C 6.328125 -13.21875 6.789062 -12.875 7.3125 -12.5625 C 7.84375 -12.25 8.191406 -12.035156 8.359375 -11.921875 L 9.515625 -11.25 C 11.035156 -10.394531 12.238281 -9.59375 13.125 -8.84375 C 14.019531 -8.09375 14.46875 -7.238281 14.46875 -6.28125 C 14.46875 -5.632812 14.367188 -4.914062 14.171875 -4.125 C 13.722656 -3.300781 12.953125 -2.34375 11.859375 -1.25 C 10.773438 -0.164062 9.9375 0.375 9.34375 0.375 Z M 9.34375 0.375 "/></g></g></g><g fill="#ff8500" fill-opacity="1"><g transform="translate(102.982584, 178.337434)"><g><path d="M 8.65625 0.375 C 7.4375 0.375 6.289062 0.0507812 5.21875 -0.59375 C 4.144531 -1.25 3.273438 -2.253906 2.609375 -3.609375 C 1.941406 -4.960938 1.609375 -6.632812 1.609375 -8.625 C 1.609375 -10.03125 1.703125 -11.332031 1.890625 -12.53125 C 2.078125 -13.738281 2.320312 -14.628906 2.625 -15.203125 C 2.914062 -15.617188 3.503906 -16.179688 4.390625 -16.890625 C 5.285156 -17.597656 6.191406 -18.222656 7.109375 -18.765625 C 8.023438 -19.304688 8.65625 -19.578125 9 -19.578125 C 10.53125 -19.578125 11.769531 -19.332031 12.71875 -18.84375 C 13.664062 -18.363281 14.398438 -17.441406 14.921875 -16.078125 C 15.441406 -14.722656 15.703125 -12.773438 15.703125 -10.234375 L 5.6875 -9.375 C 5.6875 -7.675781 5.910156 -6.328125 6.359375 -5.328125 C 6.816406 -4.328125 7.347656 -3.625 7.953125 -3.21875 C 8.566406 -2.820312 9.128906 -2.625 9.640625 -2.625 L 11.625 -2.71875 L 15.109375 -2.84375 L 15.109375 -1.109375 C 14.066406 -0.765625 12.828125 -0.429688 11.390625 -0.109375 C 9.960938 0.210938 9.050781 0.375 8.65625 0.375 Z M 11.59375 -11.890625 C 11.59375 -13.585938 11.363281 -14.867188 10.90625 -15.734375 C 10.457031 -16.597656 9.707031 -17.03125 8.65625 -17.03125 C 8.03125 -17.03125 7.492188 -16.925781 7.046875 -16.71875 C 6.679688 -16.550781 6.378906 -15.898438 6.140625 -14.765625 C 5.898438 -13.640625 5.78125 -12.425781 5.78125 -11.125 Z M 11.59375 -11.890625 "/></g></g></g><g fill="#ff8500" fill-opacity="1"><g transform="translate(122.295747, 178.337434)"><g><path d="M 4.375 0.375 C 4.226562 0.375 3.945312 0.175781 3.53125 -0.21875 C 3.125 -0.613281 2.921875 -0.878906 2.921875 -1.015625 L 2.921875 -16.640625 L 1.4375 -17.15625 L 1.4375 -18.71875 C 3.59375 -19.144531 4.796875 -19.359375 5.046875 -19.359375 C 5.191406 -19.359375 5.507812 -19.128906 6 -18.671875 C 6.5 -18.222656 6.75 -17.941406 6.75 -17.828125 L 6.671875 -16.34375 C 8.703125 -18.5 9.800781 -19.578125 9.96875 -19.578125 C 10.425781 -19.578125 11.378906 -19.347656 12.828125 -18.890625 C 12.910156 -18.691406 12.972656 -18.460938 13.015625 -18.203125 C 13.054688 -17.953125 13.078125 -17.742188 13.078125 -17.578125 C 13.078125 -17.410156 12.910156 -17.015625 12.578125 -16.390625 C 12.253906 -15.765625 12.035156 -15.425781 11.921875 -15.375 C 10.992188 -15.738281 10.242188 -15.921875 9.671875 -15.921875 C 9.304688 -15.921875 8.347656 -15.46875 6.796875 -14.5625 L 6.796875 -2.671875 L 8.953125 -2.03125 L 8.953125 -0.296875 C 6.148438 0.148438 4.625 0.375 4.375 0.375 Z M 4.375 0.375 "/></g></g></g><g fill="#ff8500" fill-opacity="1"><g transform="translate(137.576618, 178.337434)"><g><path d="M 1.953125 -1.609375 L 12.953125 -22.921875 L 5.78125 -23.515625 L 5.390625 -18.171875 L 3.0625 -18.171875 L 2.5 -25.59375 L 17.921875 -25.59375 L 17.921875 -23.984375 L 7 -2.765625 L 15.625 -2.078125 L 16.125 -7.8125 L 18.421875 -7.8125 L 18.890625 0 L 1.953125 0 Z M 1.953125 -1.609375 "/></g></g></g><g fill="#ff8500" fill-opacity="1"><g transform="translate(159.945845, 178.337434)"><g><path d="M 6.75 7.6875 C 6.632812 7.6875 6.445312 7.441406 6.1875 6.953125 C 5.9375 6.472656 5.8125 6.148438 5.8125 5.984375 L 7.8125 -0.046875 C 7.25 0.0664062 6.878906 0.125 6.703125 0.125 C 6.617188 0.125 6.410156 0.0078125 6.078125 -0.21875 L 1.578125 -16.59375 L -0.078125 -17.0625 L -0.078125 -18.8125 C 2.066406 -19.144531 3.269531 -19.3125 3.53125 -19.3125 C 3.664062 -19.3125 3.96875 -19.148438 4.4375 -18.828125 C 4.90625 -18.503906 5.164062 -18.242188 5.21875 -18.046875 L 7.6875 -8.15625 L 8.65625 -3.609375 L 9.078125 -3.609375 L 12.65625 -16.6875 L 10.109375 -16.984375 L 10.109375 -19.015625 L 14.984375 -19.3125 C 15.128906 -19.3125 15.378906 -19.113281 15.734375 -18.71875 C 16.085938 -18.320312 16.25 -18.023438 16.21875 -17.828125 L 10.578125 0 L 9.34375 4.84375 L 11 5.609375 L 11 7.171875 C 8.394531 7.515625 6.976562 7.6875 6.75 7.6875 Z M 6.75 7.6875 "/></g></g></g><g fill="#ff8500" fill-opacity="1"><g transform="translate(179.259007, 178.337434)"><g><path d="M 4.15625 7.6875 C 4.019531 7.6875 3.738281 7.488281 3.3125 7.09375 C 2.882812 6.695312 2.671875 6.425781 2.671875 6.28125 L 2.890625 -0.546875 L 2.890625 -16.5625 L 1.4375 -17.15625 L 1.4375 -18.71875 C 2.0625 -18.863281 2.796875 -19.015625 3.640625 -19.171875 C 4.492188 -19.328125 5.003906 -19.40625 5.171875 -19.40625 C 5.285156 -19.40625 5.554688 -19.207031 5.984375 -18.8125 C 6.410156 -18.414062 6.625 -18.144531 6.625 -18 L 6.625 -16.34375 L 7.890625 -17.328125 C 9.734375 -18.710938 10.726562 -19.40625 10.875 -19.40625 C 12 -19.40625 13.0625 -19.070312 14.0625 -18.40625 C 15.070312 -17.738281 15.894531 -16.734375 16.53125 -15.390625 C 17.164062 -14.046875 17.484375 -12.382812 17.484375 -10.40625 C 17.484375 -8.957031 17.390625 -7.648438 17.203125 -6.484375 C 17.023438 -5.328125 16.78125 -4.441406 16.46875 -3.828125 C 16.019531 -3.171875 15.007812 -2.304688 13.4375 -1.234375 C 11.863281 -0.160156 10.820312 0.375 10.3125 0.375 C 9.863281 0.375 8.601562 0.222656 6.53125 -0.078125 L 6.53125 4.625 L 8.234375 5.3125 L 8.234375 7 C 7.585938 7.144531 6.851562 7.285156 6.03125 7.421875 C 5.207031 7.566406 4.582031 7.65625 4.15625 7.6875 Z M 11.796875 -2.078125 C 12.335938 -2.160156 12.742188 -2.769531 13.015625 -3.90625 C 13.285156 -5.039062 13.421875 -7.019531 13.421875 -9.84375 C 13.421875 -11.289062 13.253906 -12.492188 12.921875 -13.453125 C 12.597656 -14.421875 12.21875 -15.128906 11.78125 -15.578125 C 11.34375 -16.035156 10.953125 -16.265625 10.609375 -16.265625 C 10.390625 -16.265625 9.101562 -15.695312 6.75 -14.5625 L 6.75 -2.890625 C 7.457031 -2.660156 8.375 -2.453125 9.5 -2.265625 C 10.632812 -2.085938 11.398438 -2.023438 11.796875 -2.078125 Z M 11.796875 -2.078125 "/></g></g></g><g fill="#ff8500" fill-opacity="1"><g transform="translate(200.482211, 178.337434)"><g><path d="M 4.328125 0.375 C 4.191406 0.375 3.921875 0.175781 3.515625 -0.21875 C 3.117188 -0.613281 2.921875 -0.878906 2.921875 -1.015625 L 2.921875 -24.578125 L 1.4375 -25.171875 L 1.4375 -26.75 C 3.757812 -27.195312 5.050781 -27.421875 5.3125 -27.421875 C 5.445312 -27.421875 5.726562 -27.222656 6.15625 -26.828125 C 6.582031 -26.429688 6.796875 -26.164062 6.796875 -26.03125 L 6.578125 -16.421875 L 6.796875 -16.390625 C 9.453125 -18.367188 10.863281 -19.359375 11.03125 -19.359375 C 13.070312 -19.359375 14.601562 -18.828125 15.625 -17.765625 C 16.644531 -16.703125 17.15625 -14.851562 17.15625 -12.21875 L 17.15625 -2.5 L 18.640625 -1.875 L 18.640625 -0.296875 C 16.285156 0.148438 14.984375 0.375 14.734375 0.375 C 14.585938 0.375 14.304688 0.175781 13.890625 -0.21875 C 13.484375 -0.613281 13.28125 -0.878906 13.28125 -1.015625 L 13.28125 -12.21875 C 13.28125 -13.976562 13.03125 -15.082031 12.53125 -15.53125 C 12.039062 -15.988281 11.472656 -16.21875 10.828125 -16.21875 C 10.546875 -16.21875 9.203125 -15.679688 6.796875 -14.609375 L 6.796875 -2.5 L 8.234375 -1.875 L 8.234375 -0.296875 C 5.890625 0.148438 4.585938 0.375 4.328125 0.375 Z M 4.328125 0.375 "/></g></g></g><g fill="#ff8500" fill-opacity="1"><g transform="translate(222.724099, 178.337434)"><g><path d="M 8.65625 0.375 C 7.4375 0.375 6.289062 0.0507812 5.21875 -0.59375 C 4.144531 -1.25 3.273438 -2.253906 2.609375 -3.609375 C 1.941406 -4.960938 1.609375 -6.632812 1.609375 -8.625 C 1.609375 -10.03125 1.703125 -11.332031 1.890625 -12.53125 C 2.078125 -13.738281 2.320312 -14.628906 2.625 -15.203125 C 2.914062 -15.617188 3.503906 -16.179688 4.390625 -16.890625 C 5.285156 -17.597656 6.191406 -18.222656 7.109375 -18.765625 C 8.023438 -19.304688 8.65625 -19.578125 9 -19.578125 C 10.53125 -19.578125 11.769531 -19.332031 12.71875 -18.84375 C 13.664062 -18.363281 14.398438 -17.441406 14.921875 -16.078125 C 15.441406 -14.722656 15.703125 -12.773438 15.703125 -10.234375 L 5.6875 -9.375 C 5.6875 -7.675781 5.910156 -6.328125 6.359375 -5.328125 C 6.816406 -4.328125 7.347656 -3.625 7.953125 -3.21875 C 8.566406 -2.820312 9.128906 -2.625 9.640625 -2.625 L 11.625 -2.71875 L 15.109375 -2.84375 L 15.109375 -1.109375 C 14.066406 -0.765625 12.828125 -0.429688 11.390625 -0.109375 C 9.960938 0.210938 9.050781 0.375 8.65625 0.375 Z M 11.59375 -11.890625 C 11.59375 -13.585938 11.363281 -14.867188 10.90625 -15.734375 C 10.457031 -16.597656 9.707031 -17.03125 8.65625 -17.03125 C 8.03125 -17.03125 7.492188 -16.925781 7.046875 -16.71875 C 6.679688 -16.550781 6.378906 -15.898438 6.140625 -14.765625 C 5.898438 -13.640625 5.78125 -12.425781 5.78125 -11.125 Z M 11.59375 -11.890625 "/></g></g></g><g fill="#ff8500" fill-opacity="1"><g transform="translate(242.037251, 178.337434)"><g><path d="M 4.375 0.375 C 4.226562 0.375 3.945312 0.175781 3.53125 -0.21875 C 3.125 -0.613281 2.921875 -0.878906 2.921875 -1.015625 L 2.921875 -16.640625 L 1.4375 -17.15625 L 1.4375 -18.71875 C 3.59375 -19.144531 4.796875 -19.359375 5.046875 -19.359375 C 5.191406 -19.359375 5.507812 -19.128906 6 -18.671875 C 6.5 -18.222656 6.75 -17.941406 6.75 -17.828125 L 6.671875 -16.34375 C 8.703125 -18.5 9.800781 -19.578125 9.96875 -19.578125 C 10.425781 -19.578125 11.378906 -19.347656 12.828125 -18.890625 C 12.910156 -18.691406 12.972656 -18.460938 13.015625 -18.203125 C 13.054688 -17.953125 13.078125 -17.742188 13.078125 -17.578125 C 13.078125 -17.410156 12.910156 -17.015625 12.578125 -16.390625 C 12.253906 -15.765625 12.035156 -15.425781 11.921875 -15.375 C 10.992188 -15.738281 10.242188 -15.921875 9.671875 -15.921875 C 9.304688 -15.921875 8.347656 -15.46875 6.796875 -14.5625 L 6.796875 -2.671875 L 8.953125 -2.03125 L 8.953125 -0.296875 C 6.148438 0.148438 4.625 0.375 4.375 0.375 Z M 4.375 0.375 "/></g></g></g><g fill="#ff8500" fill-opacity="1"><g transform="translate(257.318134, 178.337434)"><g><path d="M 3.390625 0.421875 C 3.222656 0.421875 2.953125 0.242188 2.578125 -0.109375 C 2.210938 -0.460938 2.03125 -0.722656 2.03125 -0.890625 L 1.953125 -4.421875 C 2.492188 -4.554688 3.066406 -4.671875 3.671875 -4.765625 C 4.273438 -4.867188 4.707031 -4.921875 4.96875 -4.921875 C 5.101562 -4.921875 5.363281 -4.738281 5.75 -4.375 C 6.132812 -4.007812 6.328125 -3.753906 6.328125 -3.609375 L 6.078125 -0.078125 C 5.503906 0.0546875 4.976562 0.164062 4.5 0.25 C 4.019531 0.332031 3.648438 0.390625 3.390625 0.421875 Z M 3.390625 0.421875 "/></g></g></g><g fill="#ff8500" fill-opacity="1"><g transform="translate(267.717791, 178.337434)"><g><path d="M 8.234375 0.375 C 7.097656 0.375 6.03125 0.046875 5.03125 -0.609375 C 4.03125 -1.273438 3.207031 -2.28125 2.5625 -3.625 C 1.925781 -4.96875 1.609375 -6.632812 1.609375 -8.625 C 1.609375 -10.0625 1.703125 -11.359375 1.890625 -12.515625 C 2.078125 -13.679688 2.320312 -14.578125 2.625 -15.203125 C 3.082031 -15.847656 4.097656 -16.707031 5.671875 -17.78125 C 7.242188 -18.863281 8.28125 -19.40625 8.78125 -19.40625 C 9.238281 -19.40625 10.5 -19.25 12.5625 -18.9375 L 12.5625 -24.578125 L 11.078125 -25.171875 L 11.078125 -26.75 C 13.429688 -27.195312 14.71875 -27.421875 14.9375 -27.421875 C 15.082031 -27.421875 15.363281 -27.222656 15.78125 -26.828125 C 16.207031 -26.429688 16.421875 -26.164062 16.421875 -26.03125 L 16.21875 -18.125 L 16.21875 -2.46875 L 17.65625 -1.875 L 17.65625 -0.296875 C 15.425781 0.148438 14.179688 0.375 13.921875 0.375 C 13.804688 0.375 13.535156 0.175781 13.109375 -0.21875 C 12.691406 -0.613281 12.484375 -0.878906 12.484375 -1.015625 L 12.484375 -2.671875 L 11.203125 -1.703125 C 9.367188 -0.316406 8.378906 0.375 8.234375 0.375 Z M 8.484375 -2.765625 C 8.742188 -2.765625 10.035156 -3.328125 12.359375 -4.453125 L 12.359375 -16.125 C 11.566406 -16.351562 10.617188 -16.5625 9.515625 -16.75 C 8.410156 -16.9375 7.671875 -17 7.296875 -16.9375 C 6.765625 -16.851562 6.363281 -16.242188 6.09375 -15.109375 C 5.820312 -13.984375 5.6875 -12.003906 5.6875 -9.171875 C 5.6875 -7.722656 5.847656 -6.519531 6.171875 -5.5625 C 6.503906 -4.601562 6.890625 -3.894531 7.328125 -3.4375 C 7.765625 -2.988281 8.148438 -2.765625 8.484375 -2.765625 Z M 8.484375 -2.765625 "/></g></g></g><g fill="#ff8500" fill-opacity="1"><g transform="translate(288.98343, 178.337434)"><g><path d="M 8.65625 0.375 C 7.4375 0.375 6.289062 0.0507812 5.21875 -0.59375 C 4.144531 -1.25 3.273438 -2.253906 2.609375 -3.609375 C 1.941406 -4.960938 1.609375 -6.632812 1.609375 -8.625 C 1.609375 -10.03125 1.703125 -11.332031 1.890625 -12.53125 C 2.078125 -13.738281 2.320312 -14.628906 2.625 -15.203125 C 2.914062 -15.617188 3.503906 -16.179688 4.390625 -16.890625 C 5.285156 -17.597656 6.191406 -18.222656 7.109375 -18.765625 C 8.023438 -19.304688 8.65625 -19.578125 9 -19.578125 C 10.53125 -19.578125 11.769531 -19.332031 12.71875 -18.84375 C 13.664062 -18.363281 14.398438 -17.441406 14.921875 -16.078125 C 15.441406 -14.722656 15.703125 -12.773438 15.703125 -10.234375 L 5.6875 -9.375 C 5.6875 -7.675781 5.910156 -6.328125 6.359375 -5.328125 C 6.816406 -4.328125 7.347656 -3.625 7.953125 -3.21875 C 8.566406 -2.820312 9.128906 -2.625 9.640625 -2.625 L 11.625 -2.71875 L 15.109375 -2.84375 L 15.109375 -1.109375 C 14.066406 -0.765625 12.828125 -0.429688 11.390625 -0.109375 C 9.960938 0.210938 9.050781 0.375 8.65625 0.375 Z M 11.59375 -11.890625 C 11.59375 -13.585938 11.363281 -14.867188 10.90625 -15.734375 C 10.457031 -16.597656 9.707031 -17.03125 8.65625 -17.03125 C 8.03125 -17.03125 7.492188 -16.925781 7.046875 -16.71875 C 6.679688 -16.550781 6.378906 -15.898438 6.140625 -14.765625 C 5.898438 -13.640625 5.78125 -12.425781 5.78125 -11.125 Z M 11.59375 -11.890625 "/></g></g></g><g fill="#ff8500" fill-opacity="1"><g transform="translate(308.296592, 178.337434)"><g><path d="M 6.796875 0.46875 C 6.710938 0.46875 6.523438 0.351562 6.234375 0.125 L 1.484375 -16.59375 L -0.078125 -17.0625 L -0.078125 -18.8125 C 2.066406 -19.144531 3.269531 -19.3125 3.53125 -19.3125 C 3.664062 -19.3125 3.957031 -19.148438 4.40625 -18.828125 C 4.863281 -18.503906 5.117188 -18.242188 5.171875 -18.046875 L 7.8125 -7.6875 L 8.65625 -4.03125 L 9.125 -4.03125 L 12.609375 -16.6875 L 10.109375 -16.984375 L 10.109375 -19.015625 L 14.984375 -19.3125 C 15.128906 -19.3125 15.367188 -19.113281 15.703125 -18.71875 C 16.046875 -18.320312 16.21875 -18.023438 16.21875 -17.828125 L 10.65625 -0.296875 C 8.28125 0.210938 6.992188 0.46875 6.796875 0.46875 Z M 6.796875 0.46875 "/></g></g></g><g fill="#9d4edd" fill-opacity="1"><g transform="translate(33.122965, 121.911916)"><g><path d="M -1.421875 -7.3125 L 2.53125 -5.5 L 1.671875 -3.625 L -2.28125 -5.4375 L -10.21875 -4.609375 L -9.453125 -6.265625 C -9.367188 -6.421875 -9.265625 -6.53125 -9.140625 -6.59375 C -9.023438 -6.65625 -8.890625 -6.691406 -8.734375 -6.703125 L -4.484375 -7 C -4.234375 -7.019531 -4 -7.023438 -3.78125 -7.015625 C -3.5625 -7.015625 -3.347656 -7.003906 -3.140625 -6.984375 C -3.285156 -7.140625 -3.429688 -7.296875 -3.578125 -7.453125 C -3.722656 -7.617188 -3.875 -7.796875 -4.03125 -7.984375 L -6.5625 -11.390625 C -6.644531 -11.503906 -6.707031 -11.628906 -6.75 -11.765625 C -6.789062 -11.910156 -6.773438 -12.0625 -6.703125 -12.21875 L -5.9375 -13.890625 Z M -1.421875 -7.3125 "/></g></g></g><g fill="#9d4edd" fill-opacity="1"><g transform="translate(39.912292, 107.744718)"><g><path d="M 1.3125 -13.125 C 2.019531 -12.707031 2.609375 -12.195312 3.078125 -11.59375 C 3.546875 -11 3.867188 -10.359375 4.046875 -9.671875 C 4.234375 -8.984375 4.269531 -8.265625 4.15625 -7.515625 C 4.039062 -6.773438 3.765625 -6.039062 3.328125 -5.3125 C 2.890625 -4.582031 2.367188 -3.992188 1.765625 -3.546875 C 1.160156 -3.097656 0.515625 -2.785156 -0.171875 -2.609375 C -0.867188 -2.441406 -1.585938 -2.421875 -2.328125 -2.546875 C -3.078125 -2.679688 -3.804688 -2.957031 -4.515625 -3.375 C -5.210938 -3.789062 -5.789062 -4.296875 -6.25 -4.890625 C -6.71875 -5.492188 -7.039062 -6.140625 -7.21875 -6.828125 C -7.40625 -7.523438 -7.441406 -8.242188 -7.328125 -8.984375 C -7.210938 -9.722656 -6.9375 -10.457031 -6.5 -11.1875 C -6.207031 -11.664062 -5.878906 -12.085938 -5.515625 -12.453125 C -5.148438 -12.828125 -4.753906 -13.128906 -4.328125 -13.359375 C -3.910156 -13.597656 -3.46875 -13.769531 -3 -13.875 C -2.539062 -13.988281 -2.066406 -14.035156 -1.578125 -14.015625 C -1.085938 -14.003906 -0.597656 -13.921875 -0.109375 -13.765625 C 0.367188 -13.617188 0.84375 -13.40625 1.3125 -13.125 Z M 0.21875 -11.28125 C -0.3125 -11.601562 -0.828125 -11.816406 -1.328125 -11.921875 C -1.828125 -12.023438 -2.300781 -12.035156 -2.75 -11.953125 C -3.195312 -11.867188 -3.609375 -11.6875 -3.984375 -11.40625 C -4.367188 -11.125 -4.703125 -10.75 -4.984375 -10.28125 C -5.265625 -9.8125 -5.4375 -9.34375 -5.5 -8.875 C -5.570312 -8.40625 -5.539062 -7.945312 -5.40625 -7.5 C -5.28125 -7.0625 -5.050781 -6.648438 -4.71875 -6.265625 C -4.382812 -5.878906 -3.953125 -5.523438 -3.421875 -5.203125 C -2.890625 -4.890625 -2.375 -4.675781 -1.875 -4.5625 C -1.375 -4.457031 -0.894531 -4.445312 -0.4375 -4.53125 C 0.0078125 -4.625 0.421875 -4.8125 0.796875 -5.09375 C 1.179688 -5.375 1.515625 -5.75 1.796875 -6.21875 C 2.078125 -6.6875 2.25 -7.15625 2.3125 -7.625 C 2.382812 -8.09375 2.351562 -8.546875 2.21875 -8.984375 C 2.082031 -9.421875 1.847656 -9.832031 1.515625 -10.21875 C 1.179688 -10.613281 0.75 -10.96875 0.21875 -11.28125 Z M 0.21875 -11.28125 "/></g></g></g><g fill="#9d4edd" fill-opacity="1"><g transform="translate(49.531458, 92.334185)"><g><path d="M 2.15625 -5.59375 C 2.394531 -5.914062 2.554688 -6.242188 2.640625 -6.578125 C 2.734375 -6.910156 2.75 -7.238281 2.6875 -7.5625 C 2.625 -7.882812 2.488281 -8.195312 2.28125 -8.5 C 2.070312 -8.800781 1.796875 -9.082031 1.453125 -9.34375 L -3.875 -13.40625 L -2.59375 -15.078125 L 2.734375 -11.015625 C 3.265625 -10.609375 3.6875 -10.144531 4 -9.625 C 4.320312 -9.101562 4.523438 -8.5625 4.609375 -8 C 4.691406 -7.4375 4.648438 -6.851562 4.484375 -6.25 C 4.316406 -5.65625 4.019531 -5.070312 3.59375 -4.5 C 3.144531 -3.925781 2.65625 -3.476562 2.125 -3.15625 C 1.601562 -2.84375 1.054688 -2.648438 0.484375 -2.578125 C -0.078125 -2.515625 -0.648438 -2.566406 -1.234375 -2.734375 C -1.816406 -2.910156 -2.375 -3.203125 -2.90625 -3.609375 L -8.234375 -7.671875 L -6.96875 -9.328125 L -1.640625 -5.265625 C -1.296875 -5.003906 -0.953125 -4.816406 -0.609375 -4.703125 C -0.265625 -4.597656 0.0664062 -4.554688 0.390625 -4.578125 C 0.722656 -4.597656 1.035156 -4.691406 1.328125 -4.859375 C 1.628906 -5.023438 1.90625 -5.269531 2.15625 -5.59375 Z M 2.15625 -5.59375 "/></g></g></g><g fill="#9d4edd" fill-opacity="1"><g transform="translate(60.216344, 78.873006)"><g><path d="M -1.09375 -7.40625 C -0.832031 -7.6875 -0.640625 -7.96875 -0.515625 -8.25 C -0.390625 -8.53125 -0.320312 -8.796875 -0.3125 -9.046875 C -0.300781 -9.304688 -0.351562 -9.550781 -0.46875 -9.78125 C -0.582031 -10.007812 -0.742188 -10.21875 -0.953125 -10.40625 C -1.367188 -10.800781 -1.8125 -10.96875 -2.28125 -10.90625 C -2.757812 -10.84375 -3.257812 -10.535156 -3.78125 -9.984375 L -4.703125 -9 L -2 -6.453125 Z M 6.859375 -7.28125 L 5.5625 -5.90625 C 5.320312 -5.644531 5.039062 -5.554688 4.71875 -5.640625 L 0.515625 -6.375 C 0.347656 -6.394531 0.207031 -6.382812 0.09375 -6.34375 C -0.0195312 -6.3125 -0.148438 -6.222656 -0.296875 -6.078125 L -0.90625 -5.421875 L 2.28125 -2.421875 L 0.859375 -0.90625 L -7.296875 -8.59375 L -4.953125 -11.09375 C -4.429688 -11.644531 -3.925781 -12.0625 -3.4375 -12.34375 C -2.957031 -12.632812 -2.492188 -12.804688 -2.046875 -12.859375 C -1.597656 -12.910156 -1.171875 -12.863281 -0.765625 -12.71875 C -0.367188 -12.582031 0 -12.347656 0.34375 -12.015625 C 0.613281 -11.765625 0.835938 -11.476562 1.015625 -11.15625 C 1.191406 -10.84375 1.300781 -10.515625 1.34375 -10.171875 C 1.394531 -9.828125 1.390625 -9.472656 1.328125 -9.109375 C 1.273438 -8.742188 1.160156 -8.382812 0.984375 -8.03125 C 1.128906 -8.070312 1.273438 -8.09375 1.421875 -8.09375 C 1.578125 -8.101562 1.738281 -8.097656 1.90625 -8.078125 Z M 6.859375 -7.28125 "/></g></g></g><g fill="#9d4edd" fill-opacity="1"><g transform="translate(71.27844, 67.647396)"><g/></g></g><g fill="#9d4edd" fill-opacity="1"><g transform="translate(78.432786, 61.309076)"><g><path d="M 1.828125 -15.484375 L 5.03125 -3.84375 L 3.53125 -2.6875 L -6.859375 -8.859375 L -5.53125 -9.875 C -5.382812 -9.976562 -5.238281 -10.03125 -5.09375 -10.03125 C -4.957031 -10.03125 -4.828125 -9.992188 -4.703125 -9.921875 L 1.546875 -6.078125 C 1.765625 -5.960938 1.984375 -5.820312 2.203125 -5.65625 C 2.421875 -5.5 2.648438 -5.320312 2.890625 -5.125 C 2.765625 -5.40625 2.648438 -5.671875 2.546875 -5.921875 C 2.441406 -6.171875 2.351562 -6.410156 2.28125 -6.640625 L 0.234375 -13.6875 C 0.191406 -13.800781 0.1875 -13.929688 0.21875 -14.078125 C 0.257812 -14.234375 0.351562 -14.363281 0.5 -14.46875 Z M 1.828125 -15.484375 "/></g></g></g><g fill="#9d4edd" fill-opacity="1"><g transform="translate(91.79828, 51.576285)"><g><path d="M 2.828125 -1.796875 L 1.046875 -0.671875 L -4.96875 -10.125 L -3.1875 -11.25 Z M 2.828125 -1.796875 "/></g></g></g><g fill="#9d4edd" fill-opacity="1"><g transform="translate(100.659024, 46.120317)"><g><path d="M 2.078125 -11.484375 C 2.078125 -11.359375 2.050781 -11.253906 2 -11.171875 C 1.957031 -11.097656 1.894531 -11.039062 1.8125 -11 C 1.71875 -10.945312 1.59375 -10.925781 1.4375 -10.9375 C 1.289062 -10.945312 1.113281 -10.953125 0.90625 -10.953125 C 0.707031 -10.960938 0.488281 -10.945312 0.25 -10.90625 C 0.0078125 -10.875 -0.253906 -10.78125 -0.546875 -10.625 C -0.796875 -10.488281 -1 -10.335938 -1.15625 -10.171875 C -1.320312 -10.015625 -1.441406 -9.84375 -1.515625 -9.65625 C -1.585938 -9.46875 -1.613281 -9.28125 -1.59375 -9.09375 C -1.570312 -8.914062 -1.515625 -8.738281 -1.421875 -8.5625 C -1.296875 -8.320312 -1.125 -8.15625 -0.90625 -8.0625 C -0.695312 -7.976562 -0.457031 -7.9375 -0.1875 -7.9375 C 0.0820312 -7.945312 0.378906 -7.984375 0.703125 -8.046875 C 1.023438 -8.109375 1.351562 -8.164062 1.6875 -8.21875 C 2.019531 -8.269531 2.359375 -8.300781 2.703125 -8.3125 C 3.046875 -8.332031 3.378906 -8.300781 3.703125 -8.21875 C 4.023438 -8.132812 4.328125 -7.984375 4.609375 -7.765625 C 4.898438 -7.546875 5.148438 -7.234375 5.359375 -6.828125 C 5.597656 -6.367188 5.742188 -5.90625 5.796875 -5.4375 C 5.847656 -4.96875 5.804688 -4.507812 5.671875 -4.0625 C 5.535156 -3.625 5.296875 -3.207031 4.953125 -2.8125 C 4.617188 -2.414062 4.179688 -2.070312 3.640625 -1.78125 C 3.328125 -1.625 3 -1.488281 2.65625 -1.375 C 2.320312 -1.269531 1.984375 -1.195312 1.640625 -1.15625 C 1.296875 -1.125 0.957031 -1.125 0.625 -1.15625 C 0.300781 -1.195312 -0.0078125 -1.265625 -0.3125 -1.359375 L -0.234375 -2.515625 C -0.234375 -2.609375 -0.207031 -2.695312 -0.15625 -2.78125 C -0.101562 -2.863281 -0.0351562 -2.925781 0.046875 -2.96875 C 0.160156 -3.03125 0.304688 -3.046875 0.484375 -3.015625 C 0.671875 -2.992188 0.882812 -2.976562 1.125 -2.96875 C 1.375 -2.957031 1.644531 -2.96875 1.9375 -3 C 2.238281 -3.03125 2.554688 -3.132812 2.890625 -3.3125 C 3.421875 -3.59375 3.757812 -3.929688 3.90625 -4.328125 C 4.050781 -4.734375 4 -5.171875 3.75 -5.640625 C 3.613281 -5.898438 3.4375 -6.078125 3.21875 -6.171875 C 3.007812 -6.265625 2.769531 -6.3125 2.5 -6.3125 C 2.226562 -6.3125 1.929688 -6.273438 1.609375 -6.203125 C 1.296875 -6.140625 0.972656 -6.078125 0.640625 -6.015625 C 0.304688 -5.953125 -0.0234375 -5.914062 -0.359375 -5.90625 C -0.703125 -5.894531 -1.035156 -5.929688 -1.359375 -6.015625 C -1.679688 -6.109375 -1.988281 -6.269531 -2.28125 -6.5 C -2.570312 -6.738281 -2.835938 -7.082031 -3.078125 -7.53125 C -3.273438 -7.894531 -3.394531 -8.285156 -3.4375 -8.703125 C -3.476562 -9.128906 -3.429688 -9.546875 -3.296875 -9.953125 C -3.160156 -10.359375 -2.929688 -10.75 -2.609375 -11.125 C -2.296875 -11.5 -1.878906 -11.828125 -1.359375 -12.109375 C -0.773438 -12.410156 -0.1875 -12.597656 0.40625 -12.671875 C 1 -12.753906 1.550781 -12.726562 2.0625 -12.59375 Z M 2.078125 -11.484375 "/></g></g></g><g fill="#9d4edd" fill-opacity="1"><g transform="translate(113.433376, 39.677349)"><g><path d="M 3.0625 -1.328125 L 1.140625 -0.5 L -3.328125 -10.78125 L -1.40625 -11.609375 Z M 3.0625 -1.328125 "/></g></g></g><g fill="#9d4edd" fill-opacity="1"><g transform="translate(122.959007, 35.629873)"><g><path d="M 9.5625 -9.078125 C 9.820312 -8.296875 9.9375 -7.523438 9.90625 -6.765625 C 9.875 -6.015625 9.703125 -5.316406 9.390625 -4.671875 C 9.078125 -4.035156 8.632812 -3.46875 8.0625 -2.96875 C 7.5 -2.476562 6.8125 -2.101562 6 -1.84375 C 5.1875 -1.570312 4.40625 -1.460938 3.65625 -1.515625 C 2.90625 -1.578125 2.210938 -1.769531 1.578125 -2.09375 C 0.941406 -2.425781 0.382812 -2.882812 -0.09375 -3.46875 C -0.582031 -4.050781 -0.957031 -4.734375 -1.21875 -5.515625 C -1.46875 -6.285156 -1.570312 -7.046875 -1.53125 -7.796875 C -1.488281 -8.546875 -1.304688 -9.238281 -0.984375 -9.875 C -0.671875 -10.519531 -0.234375 -11.085938 0.328125 -11.578125 C 0.898438 -12.066406 1.59375 -12.445312 2.40625 -12.71875 C 2.9375 -12.894531 3.457031 -13 3.96875 -13.03125 C 4.488281 -13.070312 4.984375 -13.039062 5.453125 -12.9375 C 5.929688 -12.84375 6.382812 -12.679688 6.8125 -12.453125 C 7.238281 -12.234375 7.628906 -11.957031 7.984375 -11.625 C 8.335938 -11.289062 8.644531 -10.910156 8.90625 -10.484375 C 9.175781 -10.054688 9.394531 -9.585938 9.5625 -9.078125 Z M 7.53125 -8.40625 C 7.34375 -8.988281 7.097656 -9.484375 6.796875 -9.890625 C 6.492188 -10.296875 6.140625 -10.613281 5.734375 -10.84375 C 5.335938 -11.070312 4.898438 -11.203125 4.421875 -11.234375 C 3.953125 -11.273438 3.460938 -11.210938 2.953125 -11.046875 C 2.421875 -10.867188 1.976562 -10.625 1.625 -10.3125 C 1.269531 -10.007812 1 -9.644531 0.8125 -9.21875 C 0.632812 -8.789062 0.539062 -8.320312 0.53125 -7.8125 C 0.53125 -7.3125 0.625 -6.769531 0.8125 -6.1875 C 1.007812 -5.601562 1.257812 -5.101562 1.5625 -4.6875 C 1.875 -4.269531 2.226562 -3.945312 2.625 -3.71875 C 3.03125 -3.5 3.46875 -3.367188 3.9375 -3.328125 C 4.40625 -3.296875 4.90625 -3.367188 5.4375 -3.546875 C 5.945312 -3.710938 6.378906 -3.945312 6.734375 -4.25 C 7.097656 -4.5625 7.367188 -4.925781 7.546875 -5.34375 C 7.734375 -5.769531 7.828125 -6.238281 7.828125 -6.75 C 7.828125 -7.269531 7.726562 -7.820312 7.53125 -8.40625 Z M 7.53125 -8.40625 "/></g></g></g><g fill="#9d4edd" fill-opacity="1"><g transform="translate(140.304587, 30.254537)"><g><path d="M 8.1875 -13.15625 L 10.46875 -2.1875 L 9.421875 -1.96875 C 9.253906 -1.925781 9.113281 -1.921875 9 -1.953125 C 8.882812 -1.984375 8.757812 -2.054688 8.625 -2.171875 L 1.375 -8.28125 C 1.46875 -7.945312 1.546875 -7.640625 1.609375 -7.359375 L 3.015625 -0.625 L 1.21875 -0.25 L -1.0625 -11.21875 L 0.015625 -11.453125 C 0.0976562 -11.460938 0.171875 -11.472656 0.234375 -11.484375 C 0.296875 -11.492188 0.351562 -11.488281 0.40625 -11.46875 C 0.457031 -11.457031 0.507812 -11.4375 0.5625 -11.40625 C 0.625 -11.375 0.6875 -11.328125 0.75 -11.265625 L 8.03125 -5.109375 C 7.976562 -5.285156 7.929688 -5.457031 7.890625 -5.625 C 7.847656 -5.800781 7.8125 -5.960938 7.78125 -6.109375 L 6.390625 -12.78125 Z M 8.1875 -13.15625 "/></g></g></g><g fill="#9d4edd" fill-opacity="1"><g transform="translate(157.713866, 27.057833)"><g><path d="M 0.703125 -1.140625 C 0.679688 -1.296875 0.691406 -1.453125 0.734375 -1.609375 C 0.773438 -1.765625 0.835938 -1.894531 0.921875 -2 C 1.015625 -2.113281 1.128906 -2.207031 1.265625 -2.28125 C 1.398438 -2.363281 1.550781 -2.414062 1.71875 -2.4375 C 1.875 -2.457031 2.03125 -2.441406 2.1875 -2.390625 C 2.34375 -2.347656 2.476562 -2.285156 2.59375 -2.203125 C 2.707031 -2.117188 2.800781 -2.003906 2.875 -1.859375 C 2.957031 -1.722656 3.007812 -1.578125 3.03125 -1.421875 C 3.050781 -1.265625 3.035156 -1.109375 2.984375 -0.953125 C 2.941406 -0.804688 2.875 -0.671875 2.78125 -0.546875 C 2.695312 -0.429688 2.582031 -0.335938 2.4375 -0.265625 C 2.300781 -0.191406 2.15625 -0.144531 2 -0.125 C 1.832031 -0.101562 1.671875 -0.113281 1.515625 -0.15625 C 1.367188 -0.195312 1.238281 -0.265625 1.125 -0.359375 C 1.007812 -0.453125 0.914062 -0.566406 0.84375 -0.703125 C 0.769531 -0.835938 0.722656 -0.984375 0.703125 -1.140625 Z M 0.046875 -6.625 C 0.0234375 -6.789062 0.0351562 -6.953125 0.078125 -7.109375 C 0.117188 -7.265625 0.179688 -7.394531 0.265625 -7.5 C 0.359375 -7.613281 0.472656 -7.707031 0.609375 -7.78125 C 0.742188 -7.863281 0.894531 -7.914062 1.0625 -7.9375 C 1.21875 -7.957031 1.375 -7.941406 1.53125 -7.890625 C 1.6875 -7.847656 1.820312 -7.785156 1.9375 -7.703125 C 2.050781 -7.617188 2.144531 -7.503906 2.21875 -7.359375 C 2.300781 -7.222656 2.351562 -7.070312 2.375 -6.90625 C 2.394531 -6.75 2.378906 -6.59375 2.328125 -6.4375 C 2.285156 -6.289062 2.21875 -6.15625 2.125 -6.03125 C 2.039062 -5.914062 1.925781 -5.820312 1.78125 -5.75 C 1.644531 -5.6875 1.5 -5.644531 1.34375 -5.625 C 1.175781 -5.601562 1.015625 -5.609375 0.859375 -5.640625 C 0.710938 -5.679688 0.582031 -5.75 0.46875 -5.84375 C 0.351562 -5.9375 0.257812 -6.050781 0.1875 -6.1875 C 0.113281 -6.320312 0.0664062 -6.46875 0.046875 -6.625 Z M 0.046875 -6.625 "/></g></g></g><g fill="#9d4edd" fill-opacity="1"><g transform="translate(167.546176, 26.075515)"><g/></g></g><g fill="#9d4edd" fill-opacity="1"><g transform="translate(177.068384, 25.599235)"><g><path d="M 12.109375 -5.234375 C 12.085938 -4.410156 11.929688 -3.648438 11.640625 -2.953125 C 11.347656 -2.253906 10.941406 -1.65625 10.421875 -1.15625 C 9.910156 -0.664062 9.300781 -0.289062 8.59375 -0.03125 C 7.894531 0.226562 7.117188 0.347656 6.265625 0.328125 C 5.410156 0.296875 4.640625 0.128906 3.953125 -0.171875 C 3.265625 -0.484375 2.679688 -0.898438 2.203125 -1.421875 C 1.722656 -1.953125 1.351562 -2.570312 1.09375 -3.28125 C 0.84375 -4 0.726562 -4.769531 0.75 -5.59375 C 0.78125 -6.40625 0.941406 -7.15625 1.234375 -7.84375 C 1.535156 -8.539062 1.941406 -9.132812 2.453125 -9.625 C 2.972656 -10.125 3.582031 -10.503906 4.28125 -10.765625 C 4.988281 -11.035156 5.769531 -11.15625 6.625 -11.125 C 7.1875 -11.113281 7.71875 -11.03125 8.21875 -10.875 C 8.71875 -10.726562 9.171875 -10.53125 9.578125 -10.28125 C 9.992188 -10.03125 10.363281 -9.726562 10.6875 -9.375 C 11.007812 -9.019531 11.28125 -8.625 11.5 -8.1875 C 11.71875 -7.75 11.878906 -7.28125 11.984375 -6.78125 C 12.085938 -6.289062 12.128906 -5.773438 12.109375 -5.234375 Z M 9.96875 -5.296875 C 9.988281 -5.910156 9.925781 -6.460938 9.78125 -6.953125 C 9.632812 -7.441406 9.410156 -7.863281 9.109375 -8.21875 C 8.816406 -8.570312 8.453125 -8.847656 8.015625 -9.046875 C 7.585938 -9.242188 7.101562 -9.347656 6.5625 -9.359375 C 6.007812 -9.378906 5.507812 -9.304688 5.0625 -9.140625 C 4.625 -8.972656 4.242188 -8.71875 3.921875 -8.375 C 3.609375 -8.039062 3.363281 -7.632812 3.1875 -7.15625 C 3.007812 -6.675781 2.910156 -6.128906 2.890625 -5.515625 C 2.878906 -4.898438 2.945312 -4.34375 3.09375 -3.84375 C 3.238281 -3.351562 3.457031 -2.9375 3.75 -2.59375 C 4.039062 -2.25 4.398438 -1.976562 4.828125 -1.78125 C 5.265625 -1.582031 5.757812 -1.472656 6.3125 -1.453125 C 6.851562 -1.441406 7.34375 -1.519531 7.78125 -1.6875 C 8.226562 -1.851562 8.613281 -2.097656 8.9375 -2.421875 C 9.257812 -2.753906 9.507812 -3.160156 9.6875 -3.640625 C 9.863281 -4.128906 9.957031 -4.679688 9.96875 -5.296875 Z M 9.96875 -5.296875 "/></g></g></g><g fill="#9d4edd" fill-opacity="1"><g transform="translate(195.210009, 26.522866)"><g><path d="M 5.9375 -0.84375 C 6.332031 -0.789062 6.695312 -0.804688 7.03125 -0.890625 C 7.363281 -0.972656 7.65625 -1.117188 7.90625 -1.328125 C 8.164062 -1.535156 8.375 -1.800781 8.53125 -2.125 C 8.6875 -2.457031 8.796875 -2.835938 8.859375 -3.265625 L 9.828125 -9.90625 L 11.90625 -9.59375 L 10.9375 -2.953125 C 10.84375 -2.296875 10.644531 -1.703125 10.34375 -1.171875 C 10.050781 -0.640625 9.675781 -0.203125 9.21875 0.140625 C 8.769531 0.492188 8.242188 0.742188 7.640625 0.890625 C 7.035156 1.035156 6.382812 1.054688 5.6875 0.953125 C 4.96875 0.847656 4.335938 0.640625 3.796875 0.328125 C 3.265625 0.015625 2.828125 -0.367188 2.484375 -0.828125 C 2.148438 -1.296875 1.914062 -1.828125 1.78125 -2.421875 C 1.65625 -3.015625 1.640625 -3.640625 1.734375 -4.296875 L 2.703125 -10.9375 L 4.765625 -10.640625 L 3.796875 -4 C 3.734375 -3.570312 3.738281 -3.175781 3.8125 -2.8125 C 3.882812 -2.457031 4.007812 -2.140625 4.1875 -1.859375 C 4.363281 -1.585938 4.597656 -1.363281 4.890625 -1.1875 C 5.191406 -1.019531 5.539062 -0.90625 5.9375 -0.84375 Z M 5.9375 -0.84375 "/></g></g></g><g fill="#9d4edd" fill-opacity="1"><g transform="translate(212.168342, 29.320161)"><g><path d="M 5.9375 -4.546875 C 6.3125 -4.453125 6.648438 -4.414062 6.953125 -4.4375 C 7.265625 -4.46875 7.535156 -4.539062 7.765625 -4.65625 C 7.992188 -4.78125 8.175781 -4.945312 8.3125 -5.15625 C 8.457031 -5.363281 8.566406 -5.609375 8.640625 -5.890625 C 8.785156 -6.441406 8.710938 -6.910156 8.421875 -7.296875 C 8.140625 -7.679688 7.628906 -7.96875 6.890625 -8.15625 L 5.578125 -8.484375 L 4.65625 -4.875 Z M 9.6875 2.453125 L 7.859375 1.984375 C 7.515625 1.898438 7.304688 1.703125 7.234375 1.390625 L 5.8125 -2.65625 C 5.757812 -2.8125 5.6875 -2.925781 5.59375 -3 C 5.507812 -3.082031 5.367188 -3.148438 5.171875 -3.203125 L 4.296875 -3.421875 L 3.21875 0.8125 L 1.21875 0.3125 L 3.96875 -10.546875 L 7.28125 -9.71875 C 8.019531 -9.53125 8.628906 -9.289062 9.109375 -9 C 9.597656 -8.71875 9.972656 -8.394531 10.234375 -8.03125 C 10.503906 -7.675781 10.671875 -7.285156 10.734375 -6.859375 C 10.804688 -6.441406 10.785156 -6 10.671875 -5.53125 C 10.578125 -5.164062 10.4375 -4.832031 10.25 -4.53125 C 10.0625 -4.226562 9.828125 -3.972656 9.546875 -3.765625 C 9.273438 -3.554688 8.960938 -3.382812 8.609375 -3.25 C 8.265625 -3.125 7.890625 -3.0625 7.484375 -3.0625 C 7.597656 -2.9375 7.695312 -2.804688 7.78125 -2.671875 C 7.863281 -2.546875 7.929688 -2.40625 7.984375 -2.25 Z M 9.6875 2.453125 "/></g></g></g><g fill="#9d4edd" fill-opacity="1"><g transform="translate(227.353618, 33.536976)"><g/></g></g><g fill="#9d4edd" fill-opacity="1"><g transform="translate(236.384424, 36.747669)"><g><path d="M 6.84375 -7.453125 L 5.625 -4.609375 L 9.21875 -3.046875 L 8.578125 -1.578125 L 4.984375 -3.140625 L 3.734375 -0.21875 L 8.296875 1.75 L 7.640625 3.28125 L 1.15625 0.5 L 5.578125 -9.796875 L 12.0625 -7.015625 L 11.40625 -5.484375 Z M 6.84375 -7.453125 "/></g></g></g><g fill="#9d4edd" fill-opacity="1"><g transform="translate(249.726572, 42.743634)"><g><path d="M 9.078125 5 L 7.25 4 C 7.125 3.925781 7.039062 3.835938 7 3.734375 C 6.957031 3.628906 6.941406 3.523438 6.953125 3.421875 L 6.734375 -1.609375 C 6.640625 -1.523438 6.546875 -1.453125 6.453125 -1.390625 L 2.359375 0.890625 C 2.265625 0.941406 2.160156 0.976562 2.046875 1 C 1.941406 1.03125 1.832031 1.015625 1.71875 0.953125 L 0.015625 0 L 6.0625 -3.234375 L 5.5625 -9.734375 L 7.375 -8.734375 C 7.5 -8.660156 7.578125 -8.59375 7.609375 -8.53125 C 7.648438 -8.46875 7.675781 -8.378906 7.6875 -8.265625 L 7.9375 -3.453125 C 8.050781 -3.535156 8.164062 -3.617188 8.28125 -3.703125 L 12.109375 -5.796875 C 12.203125 -5.847656 12.289062 -5.878906 12.375 -5.890625 C 12.46875 -5.898438 12.554688 -5.878906 12.640625 -5.828125 L 14.390625 -4.875 L 8.640625 -1.921875 Z M 9.078125 5 "/></g></g></g><g fill="#9d4edd" fill-opacity="1"><g transform="translate(263.676793, 50.770643)"><g><path d="M 7.1875 -1.828125 C 7.5 -1.609375 7.800781 -1.457031 8.09375 -1.375 C 8.382812 -1.289062 8.65625 -1.269531 8.90625 -1.3125 C 9.15625 -1.351562 9.390625 -1.445312 9.609375 -1.59375 C 9.835938 -1.75 10.039062 -1.960938 10.21875 -2.234375 C 10.382812 -2.472656 10.5 -2.722656 10.5625 -2.984375 C 10.625 -3.242188 10.628906 -3.492188 10.578125 -3.734375 C 10.535156 -3.972656 10.414062 -4.210938 10.21875 -4.453125 C 10.03125 -4.691406 9.78125 -4.921875 9.46875 -5.140625 L 8.171875 -6.015625 L 5.890625 -2.703125 Z M 10.390625 -6.46875 C 11.003906 -6.039062 11.484375 -5.597656 11.828125 -5.140625 C 12.179688 -4.679688 12.414062 -4.222656 12.53125 -3.765625 C 12.644531 -3.304688 12.648438 -2.84375 12.546875 -2.375 C 12.453125 -1.914062 12.253906 -1.472656 11.953125 -1.046875 C 11.640625 -0.585938 11.28125 -0.226562 10.875 0.03125 C 10.46875 0.300781 10.023438 0.46875 9.546875 0.53125 C 9.066406 0.601562 8.546875 0.554688 7.984375 0.390625 C 7.429688 0.222656 6.859375 -0.0664062 6.265625 -0.484375 L 4.96875 -1.359375 L 2.734375 1.890625 L 1.03125 0.703125 L 7.390625 -8.53125 Z M 10.390625 -6.46875 "/></g></g></g><g fill="#9d4edd" fill-opacity="1"><g transform="translate(276.129564, 59.692454)"><g><path d="M 8.703125 -5.15625 L 6.703125 -2.78125 L 9.703125 -0.265625 L 8.671875 0.96875 L 5.671875 -1.546875 L 3.640625 0.875 L 7.453125 4.0625 L 6.375 5.34375 L 0.953125 0.796875 L 8.15625 -7.78125 L 13.578125 -3.234375 L 12.515625 -1.96875 Z M 8.703125 -5.15625 "/></g></g></g><g fill="#9d4edd" fill-opacity="1"><g transform="translate(287.178746, 69.286479)"><g><path d="M 7.4375 -0.8125 C 7.707031 -0.539062 7.976562 -0.332031 8.25 -0.1875 C 8.53125 -0.0507812 8.796875 0.0234375 9.046875 0.046875 C 9.304688 0.0664062 9.550781 0.0234375 9.78125 -0.078125 C 10.019531 -0.179688 10.238281 -0.332031 10.4375 -0.53125 C 10.851562 -0.9375 11.035156 -1.378906 10.984375 -1.859375 C 10.941406 -2.335938 10.65625 -2.847656 10.125 -3.390625 L 9.171875 -4.34375 L 6.515625 -1.75 Z M 7.015625 7.140625 L 5.6875 5.78125 C 5.4375 5.53125 5.351562 5.25 5.4375 4.9375 L 6.359375 0.765625 C 6.378906 0.585938 6.375 0.441406 6.34375 0.328125 C 6.3125 0.222656 6.222656 0.0976562 6.078125 -0.046875 L 5.453125 -0.6875 L 2.328125 2.375 L 0.875 0.890625 L 8.859375 -6.953125 L 11.265625 -4.515625 C 11.796875 -3.972656 12.195312 -3.453125 12.46875 -2.953125 C 12.738281 -2.453125 12.894531 -1.976562 12.9375 -1.53125 C 12.976562 -1.09375 12.914062 -0.675781 12.75 -0.28125 C 12.582031 0.113281 12.328125 0.476562 11.984375 0.8125 C 11.722656 1.070312 11.429688 1.28125 11.109375 1.4375 C 10.785156 1.601562 10.453125 1.703125 10.109375 1.734375 C 9.773438 1.773438 9.425781 1.757812 9.0625 1.6875 C 8.695312 1.613281 8.335938 1.476562 7.984375 1.28125 C 8.015625 1.4375 8.03125 1.585938 8.03125 1.734375 C 8.039062 1.890625 8.023438 2.050781 7.984375 2.21875 Z M 7.015625 7.140625 "/></g></g></g><g fill="#9d4edd" fill-opacity="1"><g transform="translate(297.955551, 80.675973)"><g><path d="M 13.09375 1.09375 L 10.96875 -1.53125 L 3.578125 4.4375 L 2.265625 2.8125 L 9.65625 -3.15625 L 7.53125 -5.78125 L 8.859375 -6.84375 L 14.421875 0.03125 Z M 13.09375 1.09375 "/></g></g></g><g fill="#9d4edd" fill-opacity="1"><g transform="translate(307.175, 92.626743)"><g><path d="M 1.890625 2.765625 L 0.703125 1.03125 L 9.953125 -5.28125 L 11.140625 -3.546875 Z M 1.890625 2.765625 "/></g></g></g><g fill="#9d4edd" fill-opacity="1"><g transform="translate(312.912808, 101.305845)"><g><path d="M 11.53125 1.703125 C 11.414062 1.710938 11.316406 1.695312 11.234375 1.65625 C 11.160156 1.613281 11.097656 1.550781 11.046875 1.46875 C 10.992188 1.363281 10.96875 1.238281 10.96875 1.09375 C 10.976562 0.945312 10.984375 0.769531 10.984375 0.5625 C 10.984375 0.363281 10.957031 0.144531 10.90625 -0.09375 C 10.851562 -0.332031 10.75 -0.59375 10.59375 -0.875 C 10.445312 -1.125 10.289062 -1.328125 10.125 -1.484375 C 9.957031 -1.640625 9.78125 -1.75 9.59375 -1.8125 C 9.414062 -1.882812 9.234375 -1.90625 9.046875 -1.875 C 8.867188 -1.84375 8.691406 -1.773438 8.515625 -1.671875 C 8.285156 -1.546875 8.128906 -1.375 8.046875 -1.15625 C 7.960938 -0.945312 7.925781 -0.707031 7.9375 -0.4375 C 7.945312 -0.164062 7.988281 0.125 8.0625 0.4375 C 8.132812 0.757812 8.203125 1.085938 8.265625 1.421875 C 8.328125 1.765625 8.367188 2.109375 8.390625 2.453125 C 8.421875 2.796875 8.398438 3.128906 8.328125 3.453125 C 8.253906 3.773438 8.109375 4.078125 7.890625 4.359375 C 7.679688 4.648438 7.378906 4.910156 6.984375 5.140625 C 6.546875 5.398438 6.09375 5.5625 5.625 5.625 C 5.15625 5.695312 4.691406 5.671875 4.234375 5.546875 C 3.785156 5.421875 3.359375 5.191406 2.953125 4.859375 C 2.554688 4.535156 2.207031 4.109375 1.90625 3.578125 C 1.726562 3.265625 1.578125 2.941406 1.453125 2.609375 C 1.335938 2.273438 1.257812 1.9375 1.21875 1.59375 C 1.175781 1.25 1.164062 0.910156 1.1875 0.578125 C 1.207031 0.253906 1.257812 -0.0546875 1.34375 -0.359375 L 2.515625 -0.328125 C 2.597656 -0.316406 2.679688 -0.285156 2.765625 -0.234375 C 2.859375 -0.191406 2.929688 -0.128906 2.984375 -0.046875 C 3.046875 0.0546875 3.066406 0.195312 3.046875 0.375 C 3.023438 0.5625 3.007812 0.773438 3 1.015625 C 3 1.265625 3.019531 1.535156 3.0625 1.828125 C 3.101562 2.128906 3.222656 2.445312 3.421875 2.78125 C 3.710938 3.300781 4.0625 3.628906 4.46875 3.765625 C 4.875 3.910156 5.304688 3.851562 5.765625 3.59375 C 6.015625 3.445312 6.179688 3.257812 6.265625 3.03125 C 6.359375 2.8125 6.398438 2.566406 6.390625 2.296875 C 6.378906 2.023438 6.332031 1.734375 6.25 1.421875 C 6.175781 1.109375 6.101562 0.785156 6.03125 0.453125 C 5.957031 0.117188 5.910156 -0.210938 5.890625 -0.546875 C 5.867188 -0.890625 5.894531 -1.222656 5.96875 -1.546875 C 6.050781 -1.878906 6.207031 -2.191406 6.4375 -2.484375 C 6.664062 -2.785156 7 -3.066406 7.4375 -3.328125 C 7.789062 -3.523438 8.175781 -3.648438 8.59375 -3.703125 C 9.007812 -3.753906 9.425781 -3.71875 9.84375 -3.59375 C 10.257812 -3.476562 10.65625 -3.265625 11.03125 -2.953125 C 11.414062 -2.648438 11.757812 -2.242188 12.0625 -1.734375 C 12.382812 -1.160156 12.59375 -0.582031 12.6875 0 C 12.789062 0.59375 12.78125 1.148438 12.65625 1.671875 Z M 11.53125 1.703125 "/></g></g></g><g fill="#9d4edd" fill-opacity="1"><g transform="translate(319.766666, 113.792622)"><g><path d="M 10.078125 -0.921875 L 7.25 0.375 L 8.875 3.9375 L 7.421875 4.59375 L 5.796875 1.03125 L 2.90625 2.359375 L 4.96875 6.875 L 3.453125 7.5625 L 0.515625 1.140625 L 10.703125 -3.515625 L 13.640625 2.90625 L 12.140625 3.59375 Z M 10.078125 -0.921875 "/></g></g></g><g fill="#9d4edd" fill-opacity="1"><g transform="translate(14.48207, 169.749518)"><g><path d="M 2.21875 9.046875 C 2.207031 9.160156 2.160156 9.265625 2.078125 9.359375 L 1.140625 10.125 C 0.597656 9.644531 0.195312 9.066406 -0.0625 8.390625 C -0.332031 7.710938 -0.445312 6.914062 -0.40625 6 C -0.363281 5.164062 -0.1875 4.421875 0.125 3.765625 C 0.445312 3.117188 0.867188 2.570312 1.390625 2.125 C 1.921875 1.675781 2.539062 1.34375 3.25 1.125 C 3.96875 0.90625 4.742188 0.816406 5.578125 0.859375 C 6.398438 0.898438 7.15625 1.070312 7.84375 1.375 C 8.539062 1.675781 9.128906 2.082031 9.609375 2.59375 C 10.085938 3.113281 10.453125 3.710938 10.703125 4.390625 C 10.953125 5.078125 11.054688 5.832031 11.015625 6.65625 C 10.984375 7.46875 10.816406 8.179688 10.515625 8.796875 C 10.222656 9.421875 9.847656 9.945312 9.390625 10.375 L 8.453125 9.625 C 8.390625 9.582031 8.335938 9.523438 8.296875 9.453125 C 8.253906 9.390625 8.234375 9.300781 8.234375 9.1875 C 8.242188 9.113281 8.269531 9.035156 8.3125 8.953125 C 8.351562 8.878906 8.410156 8.789062 8.484375 8.6875 C 8.554688 8.59375 8.632812 8.484375 8.71875 8.359375 C 8.800781 8.234375 8.878906 8.085938 8.953125 7.921875 C 9.023438 7.753906 9.085938 7.5625 9.140625 7.34375 C 9.203125 7.125 9.238281 6.867188 9.25 6.578125 C 9.28125 6.078125 9.210938 5.613281 9.046875 5.1875 C 8.878906 4.757812 8.632812 4.382812 8.3125 4.0625 C 7.988281 3.75 7.59375 3.5 7.125 3.3125 C 6.65625 3.132812 6.109375 3.03125 5.484375 3 C 4.847656 2.96875 4.28125 3.03125 3.78125 3.1875 C 3.28125 3.34375 2.851562 3.5625 2.5 3.84375 C 2.144531 4.132812 1.867188 4.484375 1.671875 4.890625 C 1.484375 5.296875 1.375 5.734375 1.34375 6.203125 C 1.332031 6.492188 1.335938 6.75 1.359375 6.96875 C 1.378906 7.195312 1.414062 7.410156 1.46875 7.609375 C 1.53125 7.804688 1.609375 7.992188 1.703125 8.171875 C 1.804688 8.347656 1.929688 8.53125 2.078125 8.71875 C 2.128906 8.769531 2.164062 8.820312 2.1875 8.875 C 2.207031 8.925781 2.21875 8.984375 2.21875 9.046875 Z M 2.21875 9.046875 "/></g></g></g><g fill="#9d4edd" fill-opacity="1"><g transform="translate(13.979097, 186.727899)"><g><path d="M 6.3125 11.578125 C 5.488281 11.628906 4.71875 11.539062 4 11.3125 C 3.289062 11.082031 2.664062 10.734375 2.125 10.265625 C 1.582031 9.804688 1.144531 9.234375 0.8125 8.546875 C 0.488281 7.867188 0.300781 7.101562 0.25 6.25 C 0.195312 5.394531 0.289062 4.613281 0.53125 3.90625 C 0.78125 3.207031 1.144531 2.59375 1.625 2.0625 C 2.101562 1.53125 2.679688 1.101562 3.359375 0.78125 C 4.046875 0.46875 4.800781 0.285156 5.625 0.234375 C 6.4375 0.191406 7.203125 0.285156 7.921875 0.515625 C 8.640625 0.742188 9.269531 1.09375 9.8125 1.5625 C 10.351562 2.03125 10.785156 2.597656 11.109375 3.265625 C 11.441406 3.941406 11.632812 4.707031 11.6875 5.5625 C 11.726562 6.125 11.695312 6.660156 11.59375 7.171875 C 11.488281 7.691406 11.328125 8.164062 11.109375 8.59375 C 10.898438 9.019531 10.632812 9.410156 10.3125 9.765625 C 9.988281 10.117188 9.617188 10.425781 9.203125 10.6875 C 8.796875 10.945312 8.347656 11.148438 7.859375 11.296875 C 7.367188 11.453125 6.851562 11.546875 6.3125 11.578125 Z M 6.1875 9.4375 C 6.800781 9.40625 7.34375 9.289062 7.8125 9.09375 C 8.289062 8.90625 8.691406 8.644531 9.015625 8.3125 C 9.347656 7.988281 9.585938 7.601562 9.734375 7.15625 C 9.890625 6.707031 9.953125 6.210938 9.921875 5.671875 C 9.890625 5.117188 9.769531 4.628906 9.5625 4.203125 C 9.351562 3.785156 9.066406 3.429688 8.703125 3.140625 C 8.335938 2.859375 7.910156 2.648438 7.421875 2.515625 C 6.929688 2.390625 6.378906 2.34375 5.765625 2.375 C 5.148438 2.414062 4.601562 2.53125 4.125 2.71875 C 3.644531 2.914062 3.242188 3.175781 2.921875 3.5 C 2.609375 3.820312 2.375 4.207031 2.21875 4.65625 C 2.0625 5.101562 2 5.601562 2.03125 6.15625 C 2.0625 6.695312 2.179688 7.175781 2.390625 7.59375 C 2.609375 8.019531 2.894531 8.378906 3.25 8.671875 C 3.601562 8.960938 4.023438 9.171875 4.515625 9.296875 C 5.015625 9.429688 5.570312 9.476562 6.1875 9.4375 Z M 6.1875 9.4375 "/></g></g></g><g fill="#9d4edd" fill-opacity="1"><g transform="translate(15.498856, 205.996062)"><g><path d="M 13.453125 11.15625 L 2.4375 13.1875 L 2.09375 11.375 L 9.203125 10.0625 C 9.492188 10.007812 9.804688 9.96875 10.140625 9.9375 L 3.265625 7.75 C 2.953125 7.65625 2.765625 7.441406 2.703125 7.109375 L 2.640625 6.8125 C 2.585938 6.5 2.691406 6.234375 2.953125 6.015625 L 8.609375 1.5 C 8.441406 1.539062 8.28125 1.578125 8.125 1.609375 C 7.96875 1.648438 7.816406 1.6875 7.671875 1.71875 L 0.5625 3.03125 L 0.234375 1.234375 L 11.25 -0.796875 L 11.53125 0.75 C 11.539062 0.832031 11.550781 0.90625 11.5625 0.96875 C 11.570312 1.039062 11.570312 1.101562 11.5625 1.15625 C 11.550781 1.21875 11.523438 1.269531 11.484375 1.3125 C 11.441406 1.363281 11.390625 1.421875 11.328125 1.484375 L 5.828125 5.921875 C 5.671875 6.035156 5.515625 6.144531 5.359375 6.25 C 5.203125 6.351562 5.035156 6.457031 4.859375 6.5625 C 5.066406 6.601562 5.265625 6.644531 5.453125 6.6875 C 5.640625 6.738281 5.828125 6.789062 6.015625 6.84375 L 12.703125 8.96875 C 12.785156 8.988281 12.851562 9.019531 12.90625 9.0625 C 12.957031 9.101562 13 9.144531 13.03125 9.1875 C 13.0625 9.238281 13.085938 9.296875 13.109375 9.359375 C 13.128906 9.429688 13.144531 9.507812 13.15625 9.59375 Z M 13.453125 11.15625 "/></g></g></g><g fill="#9d4edd" fill-opacity="1"><g transform="translate(19.892271, 226.935311)"><g><path d="M 6.765625 3.046875 C 6.878906 3.421875 7.019531 3.726562 7.1875 3.96875 C 7.351562 4.21875 7.546875 4.40625 7.765625 4.53125 C 7.992188 4.65625 8.242188 4.722656 8.515625 4.734375 C 8.785156 4.753906 9.078125 4.71875 9.390625 4.625 C 9.671875 4.539062 9.914062 4.414062 10.125 4.25 C 10.332031 4.09375 10.488281 3.898438 10.59375 3.671875 C 10.707031 3.441406 10.765625 3.175781 10.765625 2.875 C 10.765625 2.582031 10.707031 2.25 10.59375 1.875 L 10.140625 0.390625 L 6.3125 1.5625 Z M 12.140625 1.40625 C 12.359375 2.125 12.460938 2.769531 12.453125 3.34375 C 12.441406 3.925781 12.335938 4.429688 12.140625 4.859375 C 11.941406 5.296875 11.660156 5.660156 11.296875 5.953125 C 10.929688 6.242188 10.5 6.46875 10 6.625 C 9.46875 6.78125 8.960938 6.835938 8.484375 6.796875 C 8.003906 6.753906 7.554688 6.609375 7.140625 6.359375 C 6.722656 6.117188 6.34375 5.757812 6 5.28125 C 5.664062 4.8125 5.394531 4.226562 5.1875 3.53125 L 4.734375 2.046875 L 0.96875 3.1875 L 0.359375 1.203125 L 11.078125 -2.0625 Z M 12.140625 1.40625 "/></g></g></g><g fill="#9d4edd" fill-opacity="1"><g transform="translate(24.942791, 242.378342)"><g><path d="M 4.546875 6.578125 L 2.953125 7.234375 L 0.46875 1.15625 L 10.84375 -3.078125 L 11.625 -1.15625 L 2.84375 2.421875 Z M 4.546875 6.578125 "/></g></g></g><g fill="#9d4edd" fill-opacity="1"><g transform="translate(30.75755, 255.872319)"><g><path d="M 10.015625 -1.421875 L 7.25 0.015625 L 9.0625 3.5 L 7.640625 4.21875 L 5.828125 0.734375 L 3.015625 2.203125 L 5.3125 6.609375 L 3.828125 7.375 L 0.578125 1.109375 L 10.53125 -4.046875 L 13.78125 2.21875 L 12.3125 2.984375 Z M 10.015625 -1.421875 "/></g></g></g><g fill="#9d4edd" fill-opacity="1"><g transform="translate(38.189163, 269.559627)"><g><path d="M 12.90625 2.484375 L 11.078125 -0.34375 L 3.09375 4.796875 L 1.953125 3.03125 L 9.9375 -2.109375 L 8.109375 -4.9375 L 9.546875 -5.859375 L 14.34375 1.5625 Z M 12.90625 2.484375 "/></g></g></g><g fill="#9d4edd" fill-opacity="1"><g transform="translate(47.099734, 282.801954)"><g><path d="M 9.5625 -3.28125 L 7.125 -1.359375 L 9.546875 1.734375 L 8.296875 2.71875 L 5.875 -0.375 L 3.375 1.59375 L 6.453125 5.5 L 5.140625 6.53125 L 0.765625 0.984375 L 9.578125 -5.9375 L 13.953125 -0.390625 L 12.640625 0.625 Z M 9.5625 -3.28125 "/></g></g></g><g fill="#9d4edd" fill-opacity="1"><g transform="translate(56.945704, 294.756223)"><g/></g></g><g fill="#9d4edd" fill-opacity="1"><g transform="translate(64.048871, 302.451012)"><g><path d="M 19.515625 2.390625 L 9.46875 8.421875 L 8.0625 7.1875 L 11.328125 -0.171875 C 11.398438 -0.347656 11.503906 -0.5625 11.640625 -0.8125 C 11.523438 -0.726562 11.414062 -0.65625 11.3125 -0.59375 C 11.21875 -0.53125 11.128906 -0.472656 11.046875 -0.421875 L 4.109375 3.65625 L 2.703125 2.40625 L 7.546875 -8.28125 L 8.859375 -7.109375 C 8.984375 -6.992188 9.0625 -6.863281 9.09375 -6.71875 C 9.132812 -6.582031 9.125 -6.441406 9.0625 -6.296875 L 6.03125 -0.03125 C 5.945312 0.125 5.851562 0.285156 5.75 0.453125 C 5.65625 0.617188 5.554688 0.796875 5.453125 0.984375 C 5.617188 0.847656 5.78125 0.722656 5.9375 0.609375 C 6.101562 0.492188 6.269531 0.394531 6.4375 0.3125 L 12.53125 -3.21875 C 12.632812 -3.269531 12.765625 -3.289062 12.921875 -3.28125 C 13.078125 -3.28125 13.222656 -3.21875 13.359375 -3.09375 L 13.8125 -2.703125 C 13.945312 -2.578125 14.023438 -2.445312 14.046875 -2.3125 C 14.078125 -2.175781 14.070312 -2.035156 14.03125 -1.890625 L 11.203125 4.5625 C 11.066406 4.882812 10.890625 5.226562 10.671875 5.59375 C 10.992188 5.332031 11.300781 5.101562 11.59375 4.90625 L 17.46875 1.1875 C 17.570312 1.113281 17.703125 1.082031 17.859375 1.09375 C 18.023438 1.113281 18.175781 1.179688 18.3125 1.296875 Z M 19.515625 2.390625 "/></g></g></g><g fill="#9d4edd" fill-opacity="1"><g transform="translate(81.658805, 317.322195)"><g><path d="M 8.21875 -5.890625 L 6.4375 -3.34375 L 9.65625 -1.09375 L 8.734375 0.203125 L 5.515625 -2.046875 L 3.6875 0.546875 L 7.75 3.40625 L 6.796875 4.78125 L 1.015625 0.71875 L 7.453125 -8.453125 L 13.234375 -4.390625 L 12.28125 -3.03125 Z M 8.21875 -5.890625 "/></g></g></g><g fill="#9d4edd" fill-opacity="1"><g transform="translate(94.585185, 326.037027)"><g><path d="M 5.53125 1.25 C 5.863281 1.445312 6.164062 1.570312 6.4375 1.625 C 6.71875 1.675781 6.96875 1.671875 7.1875 1.609375 C 7.40625 1.546875 7.59375 1.441406 7.75 1.296875 C 7.914062 1.160156 8.054688 0.988281 8.171875 0.78125 C 8.296875 0.570312 8.367188 0.363281 8.390625 0.15625 C 8.421875 -0.0390625 8.394531 -0.242188 8.3125 -0.453125 C 8.238281 -0.660156 8.101562 -0.851562 7.90625 -1.03125 C 7.71875 -1.21875 7.46875 -1.40625 7.15625 -1.59375 L 5.3125 -2.625 L 3.6875 0.21875 Z M 7.609375 -6.703125 L 6.015625 -3.890625 L 7.46875 -3.078125 C 8.09375 -2.722656 8.628906 -2.566406 9.078125 -2.609375 C 9.523438 -2.648438 9.882812 -2.914062 10.15625 -3.40625 C 10.445312 -3.914062 10.503906 -4.359375 10.328125 -4.734375 C 10.160156 -5.117188 9.773438 -5.484375 9.171875 -5.828125 Z M 9.96875 -7.234375 C 10.601562 -6.867188 11.113281 -6.5 11.5 -6.125 C 11.882812 -5.75 12.15625 -5.367188 12.3125 -4.984375 C 12.476562 -4.597656 12.535156 -4.203125 12.484375 -3.796875 C 12.441406 -3.398438 12.304688 -3.003906 12.078125 -2.609375 C 11.953125 -2.378906 11.796875 -2.175781 11.609375 -2 C 11.421875 -1.832031 11.203125 -1.695312 10.953125 -1.59375 C 10.710938 -1.5 10.441406 -1.4375 10.140625 -1.40625 C 9.847656 -1.375 9.523438 -1.398438 9.171875 -1.484375 C 10.335938 -0.410156 10.597656 0.691406 9.953125 1.828125 C 9.710938 2.242188 9.410156 2.582031 9.046875 2.84375 C 8.691406 3.101562 8.289062 3.273438 7.84375 3.359375 C 7.40625 3.441406 6.921875 3.429688 6.390625 3.328125 C 5.867188 3.222656 5.328125 3.015625 4.765625 2.703125 L 1.09375 0.609375 L 6.609375 -9.140625 Z M 9.96875 -7.234375 "/></g></g></g><g fill="#9d4edd" fill-opacity="1"><g transform="translate(109.398371, 333.960357)"><g/></g></g><g fill="#9d4edd" fill-opacity="1"><g transform="translate(118.877397, 338.227278)"><g><path d="M 12.4375 -1.46875 C 12.15625 -0.6875 11.765625 -0.0195312 11.265625 0.53125 C 10.773438 1.082031 10.210938 1.503906 9.578125 1.796875 C 8.953125 2.097656 8.265625 2.257812 7.515625 2.28125 C 6.765625 2.300781 5.988281 2.164062 5.1875 1.875 L 1.171875 0.421875 L 4.984375 -10.109375 L 9 -8.65625 C 9.800781 -8.363281 10.484375 -7.96875 11.046875 -7.46875 C 11.609375 -6.96875 12.035156 -6.398438 12.328125 -5.765625 C 12.628906 -5.140625 12.789062 -4.457031 12.8125 -3.71875 C 12.84375 -2.976562 12.71875 -2.226562 12.4375 -1.46875 Z M 10.421875 -2.1875 C 10.628906 -2.757812 10.738281 -3.300781 10.75 -3.8125 C 10.769531 -4.320312 10.691406 -4.789062 10.515625 -5.21875 C 10.347656 -5.644531 10.085938 -6.015625 9.734375 -6.328125 C 9.390625 -6.648438 8.957031 -6.90625 8.4375 -7.09375 L 6.390625 -7.828125 L 3.703125 -0.421875 L 5.75 0.3125 C 6.269531 0.5 6.765625 0.582031 7.234375 0.5625 C 7.710938 0.539062 8.148438 0.421875 8.546875 0.203125 C 8.953125 -0.00390625 9.3125 -0.304688 9.625 -0.703125 C 9.945312 -1.109375 10.210938 -1.601562 10.421875 -2.1875 Z M 10.421875 -2.1875 "/></g></g></g><g fill="#9d4edd" fill-opacity="1"><g transform="translate(136.391903, 344.135269)"><g><path d="M 5.578125 -8.453125 L 4.8125 -5.4375 L 8.609375 -4.484375 L 8.21875 -2.9375 L 4.421875 -3.890625 L 3.65625 -0.8125 L 8.46875 0.40625 L 8.0625 2.03125 L 1.21875 0.296875 L 3.953125 -10.5625 L 10.796875 -8.828125 L 10.390625 -7.234375 Z M 5.578125 -8.453125 "/></g></g></g><g fill="#9d4edd" fill-opacity="1"><g transform="translate(151.587723, 347.656745)"><g><path d="M 12.359375 -9.484375 L 6.265625 0.921875 L 4.390625 0.65625 L 1.5625 -11.09375 L 3.21875 -10.84375 C 3.394531 -10.820312 3.53125 -10.753906 3.625 -10.640625 C 3.726562 -10.535156 3.796875 -10.421875 3.828125 -10.296875 L 5.453125 -3.125 C 5.492188 -2.894531 5.535156 -2.640625 5.578125 -2.359375 C 5.617188 -2.085938 5.65625 -1.800781 5.6875 -1.5 C 5.789062 -1.78125 5.894531 -2.046875 6 -2.296875 C 6.113281 -2.554688 6.234375 -2.785156 6.359375 -2.984375 L 9.96875 -9.375 C 10.019531 -9.476562 10.113281 -9.566406 10.25 -9.640625 C 10.382812 -9.722656 10.539062 -9.753906 10.71875 -9.734375 Z M 12.359375 -9.484375 "/></g></g></g><g fill="#9d4edd" fill-opacity="1"><g transform="translate(168.896785, 349.844727)"><g><path d="M 3.8125 -9.375 L 3.65625 -6.28125 L 7.5625 -6.078125 L 7.484375 -4.484375 L 3.578125 -4.6875 L 3.421875 -1.515625 L 8.375 -1.265625 L 8.296875 0.40625 L 1.25 0.0625 L 1.796875 -11.125 L 8.84375 -10.78125 L 8.765625 -9.125 Z M 3.8125 -9.375 "/></g></g></g><g fill="#9d4edd" fill-opacity="1"><g transform="translate(184.445043, 350.280672)"><g><path d="M 7.734375 -2.046875 L 7.8125 -0.328125 L 1.25 -0.046875 L 0.78125 -11.234375 L 2.859375 -11.328125 L 3.25 -1.859375 Z M 7.734375 -2.046875 "/></g></g></g><g fill="#9d4edd" fill-opacity="1"><g transform="translate(199.176221, 349.438452)"><g><path d="M 11.015625 -7.25 C 11.128906 -6.4375 11.101562 -5.664062 10.9375 -4.9375 C 10.769531 -4.207031 10.476562 -3.550781 10.0625 -2.96875 C 9.644531 -2.394531 9.109375 -1.914062 8.453125 -1.53125 C 7.804688 -1.144531 7.0625 -0.890625 6.21875 -0.765625 C 5.375 -0.648438 4.585938 -0.6875 3.859375 -0.875 C 3.128906 -1.0625 2.476562 -1.367188 1.90625 -1.796875 C 1.34375 -2.234375 0.875 -2.773438 0.5 -3.421875 C 0.132812 -4.078125 -0.101562 -4.8125 -0.21875 -5.625 C -0.332031 -6.4375 -0.304688 -7.207031 -0.140625 -7.9375 C 0.0234375 -8.675781 0.316406 -9.332031 0.734375 -9.90625 C 1.160156 -10.488281 1.695312 -10.972656 2.34375 -11.359375 C 3 -11.742188 3.75 -11.992188 4.59375 -12.109375 C 5.144531 -12.191406 5.675781 -12.203125 6.1875 -12.140625 C 6.707031 -12.085938 7.191406 -11.96875 7.640625 -11.78125 C 8.097656 -11.601562 8.515625 -11.367188 8.890625 -11.078125 C 9.265625 -10.785156 9.597656 -10.445312 9.890625 -10.0625 C 10.179688 -9.675781 10.421875 -9.242188 10.609375 -8.765625 C 10.796875 -8.296875 10.929688 -7.789062 11.015625 -7.25 Z M 8.90625 -6.9375 C 8.8125 -7.550781 8.648438 -8.085938 8.421875 -8.546875 C 8.191406 -9.003906 7.898438 -9.378906 7.546875 -9.671875 C 7.203125 -9.972656 6.796875 -10.179688 6.328125 -10.296875 C 5.867188 -10.421875 5.375 -10.441406 4.84375 -10.359375 C 4.289062 -10.285156 3.8125 -10.125 3.40625 -9.875 C 3 -9.632812 2.664062 -9.320312 2.40625 -8.9375 C 2.15625 -8.550781 1.984375 -8.109375 1.890625 -7.609375 C 1.796875 -7.109375 1.796875 -6.550781 1.890625 -5.9375 C 1.972656 -5.332031 2.128906 -4.796875 2.359375 -4.328125 C 2.597656 -3.867188 2.890625 -3.492188 3.234375 -3.203125 C 3.585938 -2.921875 3.992188 -2.71875 4.453125 -2.59375 C 4.910156 -2.476562 5.414062 -2.457031 5.96875 -2.53125 C 6.5 -2.613281 6.96875 -2.773438 7.375 -3.015625 C 7.789062 -3.265625 8.125 -3.578125 8.375 -3.953125 C 8.632812 -4.328125 8.804688 -4.765625 8.890625 -5.265625 C 8.984375 -5.773438 8.988281 -6.332031 8.90625 -6.9375 Z M 8.90625 -6.9375 "/></g></g></g><g fill="#9d4edd" fill-opacity="1"><g transform="translate(218.154268, 346.262545)"><g><path d="M 3.359375 -6.609375 C 3.734375 -6.703125 4.039062 -6.828125 4.28125 -6.984375 C 4.53125 -7.148438 4.722656 -7.34375 4.859375 -7.5625 C 5.003906 -7.78125 5.09375 -8.023438 5.125 -8.296875 C 5.15625 -8.566406 5.128906 -8.859375 5.046875 -9.171875 C 4.972656 -9.453125 4.859375 -9.703125 4.703125 -9.921875 C 4.554688 -10.140625 4.375 -10.304688 4.15625 -10.421875 C 3.9375 -10.546875 3.675781 -10.613281 3.375 -10.625 C 3.070312 -10.632812 2.734375 -10.59375 2.359375 -10.5 L 0.84375 -10.125 L 1.84375 -6.234375 Z M 1.96875 -12.0625 C 2.695312 -12.25 3.347656 -12.320312 3.921875 -12.28125 C 4.492188 -12.25 4.988281 -12.125 5.40625 -11.90625 C 5.832031 -11.695312 6.1875 -11.398438 6.46875 -11.015625 C 6.75 -10.628906 6.953125 -10.1875 7.078125 -9.6875 C 7.210938 -9.15625 7.25 -8.644531 7.1875 -8.15625 C 7.125 -7.675781 6.957031 -7.234375 6.6875 -6.828125 C 6.414062 -6.421875 6.035156 -6.0625 5.546875 -5.75 C 5.066406 -5.445312 4.472656 -5.203125 3.765625 -5.015625 L 2.25 -4.640625 L 3.21875 -0.828125 L 1.21875 -0.3125 L -1.546875 -11.171875 Z M 1.96875 -12.0625 "/></g></g></g><g fill="#9d4edd" fill-opacity="1"><g transform="translate(233.943583, 341.994479)"><g><path d="M 8.5625 -15.21875 L 12.53125 -4.75 L 10.8125 -4.09375 L 8.25 -10.859375 C 8.144531 -11.128906 8.050781 -11.425781 7.96875 -11.75 L 7.046875 -4.59375 C 7.003906 -4.257812 6.828125 -4.035156 6.515625 -3.921875 L 6.234375 -3.8125 C 5.929688 -3.695312 5.648438 -3.75 5.390625 -3.96875 L -0.078125 -8.75 C -0.00390625 -8.582031 0.0625 -8.425781 0.125 -8.28125 C 0.195312 -8.132812 0.257812 -7.992188 0.3125 -7.859375 L 2.875 -1.09375 L 1.171875 -0.4375 L -2.796875 -10.90625 L -1.328125 -11.46875 C -1.242188 -11.5 -1.171875 -11.523438 -1.109375 -11.546875 C -1.046875 -11.578125 -0.984375 -11.585938 -0.921875 -11.578125 C -0.859375 -11.578125 -0.796875 -11.5625 -0.734375 -11.53125 C -0.679688 -11.5 -0.628906 -11.460938 -0.578125 -11.421875 L 4.765625 -6.796875 C 4.910156 -6.671875 5.050781 -6.535156 5.1875 -6.390625 C 5.320312 -6.253906 5.460938 -6.113281 5.609375 -5.96875 C 5.597656 -6.164062 5.597656 -6.363281 5.609375 -6.5625 C 5.617188 -6.757812 5.632812 -6.953125 5.65625 -7.140625 L 6.546875 -14.109375 C 6.566406 -14.191406 6.585938 -14.265625 6.609375 -14.328125 C 6.640625 -14.390625 6.671875 -14.4375 6.703125 -14.46875 C 6.742188 -14.507812 6.796875 -14.539062 6.859375 -14.5625 C 6.921875 -14.59375 7 -14.625 7.09375 -14.65625 Z M 8.5625 -15.21875 "/></g></g></g><g fill="#9d4edd" fill-opacity="1"><g transform="translate(253.746228, 333.92468)"><g><path d="M -1.359375 -10.015625 L 0.046875 -7.25 L 3.53125 -9.046875 L 4.265625 -7.625 L 0.78125 -5.828125 L 2.21875 -3 L 6.640625 -5.265625 L 7.40625 -3.78125 L 1.109375 -0.5625 L -3.984375 -10.53125 L 2.3125 -13.75 L 3.0625 -12.28125 Z M -1.359375 -10.015625 "/></g></g></g><g fill="#9d4edd" fill-opacity="1"><g transform="translate(267.52798, 326.576365)"><g><path d="M 2.875 -15.21875 L 8.96875 -5.8125 L 8.078125 -5.234375 C 7.929688 -5.140625 7.800781 -5.082031 7.6875 -5.0625 C 7.570312 -5.050781 7.425781 -5.070312 7.25 -5.125 L -1.703125 -8.21875 C -1.503906 -7.945312 -1.320312 -7.6875 -1.15625 -7.4375 L 2.578125 -1.671875 L 1.046875 -0.6875 L -5.046875 -10.09375 L -4.125 -10.6875 C -4.050781 -10.726562 -3.984375 -10.765625 -3.921875 -10.796875 C -3.867188 -10.828125 -3.816406 -10.84375 -3.765625 -10.84375 C -3.710938 -10.851562 -3.648438 -10.851562 -3.578125 -10.84375 C -3.515625 -10.832031 -3.445312 -10.8125 -3.375 -10.78125 L 5.640625 -7.671875 C 5.523438 -7.816406 5.414062 -7.957031 5.3125 -8.09375 C 5.21875 -8.238281 5.128906 -8.375 5.046875 -8.5 L 1.34375 -14.21875 Z M 2.875 -15.21875 "/></g></g></g><g fill="#9d4edd" fill-opacity="1"><g transform="translate(282.946961, 316.089361)"><g><path d="M 1.09375 -13.09375 L -1.53125 -10.96875 L 4.4375 -3.578125 L 2.8125 -2.265625 L -3.15625 -9.65625 L -5.78125 -7.53125 L -6.84375 -8.859375 L 0.03125 -14.421875 Z M 1.09375 -13.09375 "/></g></g></g><g fill="#9d4edd" fill-opacity="1"><g transform="translate(295.075897, 305.839607)"><g/></g></g><g fill="#9d4edd" fill-opacity="1"><g transform="translate(302.483683, 298.623721)"><g><path d="M -1.921875 -11.515625 C -1.878906 -11.390625 -1.863281 -11.28125 -1.875 -11.1875 C -1.894531 -11.101562 -1.9375 -11.023438 -2 -10.953125 C -2.070312 -10.867188 -2.179688 -10.804688 -2.328125 -10.765625 C -2.472656 -10.734375 -2.640625 -10.679688 -2.828125 -10.609375 C -3.023438 -10.546875 -3.226562 -10.457031 -3.4375 -10.34375 C -3.65625 -10.226562 -3.875 -10.050781 -4.09375 -9.8125 C -4.289062 -9.59375 -4.4375 -9.378906 -4.53125 -9.171875 C -4.625 -8.972656 -4.671875 -8.773438 -4.671875 -8.578125 C -4.679688 -8.390625 -4.644531 -8.207031 -4.5625 -8.03125 C -4.488281 -7.863281 -4.375 -7.710938 -4.21875 -7.578125 C -4.03125 -7.398438 -3.816406 -7.304688 -3.578125 -7.296875 C -3.347656 -7.285156 -3.109375 -7.328125 -2.859375 -7.421875 C -2.609375 -7.515625 -2.34375 -7.644531 -2.0625 -7.8125 C -1.78125 -7.976562 -1.488281 -8.140625 -1.1875 -8.296875 C -0.882812 -8.460938 -0.570312 -8.609375 -0.25 -8.734375 C 0.0625 -8.867188 0.378906 -8.953125 0.703125 -8.984375 C 1.035156 -9.015625 1.375 -8.972656 1.71875 -8.859375 C 2.0625 -8.753906 2.40625 -8.546875 2.75 -8.234375 C 3.125 -7.890625 3.414062 -7.503906 3.625 -7.078125 C 3.84375 -6.648438 3.957031 -6.203125 3.96875 -5.734375 C 3.988281 -5.273438 3.90625 -4.800781 3.71875 -4.3125 C 3.53125 -3.832031 3.226562 -3.367188 2.8125 -2.921875 C 2.570312 -2.648438 2.304688 -2.40625 2.015625 -2.1875 C 1.734375 -1.976562 1.4375 -1.800781 1.125 -1.65625 C 0.820312 -1.507812 0.507812 -1.394531 0.1875 -1.3125 C -0.125 -1.238281 -0.441406 -1.191406 -0.765625 -1.171875 L -1.078125 -2.296875 C -1.097656 -2.390625 -1.097656 -2.476562 -1.078125 -2.5625 C -1.066406 -2.65625 -1.03125 -2.738281 -0.96875 -2.8125 C -0.882812 -2.90625 -0.75 -2.96875 -0.5625 -3 C -0.382812 -3.039062 -0.179688 -3.097656 0.046875 -3.171875 C 0.285156 -3.242188 0.535156 -3.34375 0.796875 -3.46875 C 1.066406 -3.601562 1.332031 -3.816406 1.59375 -4.109375 C 1.988281 -4.546875 2.191406 -4.976562 2.203125 -5.40625 C 2.210938 -5.832031 2.023438 -6.226562 1.640625 -6.59375 C 1.421875 -6.78125 1.191406 -6.882812 0.953125 -6.90625 C 0.710938 -6.925781 0.460938 -6.890625 0.203125 -6.796875 C -0.046875 -6.703125 -0.304688 -6.566406 -0.578125 -6.390625 C -0.847656 -6.210938 -1.128906 -6.039062 -1.421875 -5.875 C -1.722656 -5.71875 -2.03125 -5.570312 -2.34375 -5.4375 C -2.664062 -5.3125 -2.988281 -5.234375 -3.3125 -5.203125 C -3.644531 -5.171875 -3.988281 -5.21875 -4.34375 -5.34375 C -4.707031 -5.46875 -5.078125 -5.703125 -5.453125 -6.046875 C -5.753906 -6.316406 -5.992188 -6.644531 -6.171875 -7.03125 C -6.347656 -7.414062 -6.441406 -7.820312 -6.453125 -8.25 C -6.460938 -8.6875 -6.378906 -9.132812 -6.203125 -9.59375 C -6.035156 -10.050781 -5.753906 -10.5 -5.359375 -10.9375 C -4.921875 -11.425781 -4.4375 -11.804688 -3.90625 -12.078125 C -3.382812 -12.347656 -2.851562 -12.503906 -2.3125 -12.546875 Z M -1.921875 -11.515625 "/></g></g></g><g fill="#9d4edd" fill-opacity="1"><g transform="translate(312.537788, 287.20881)"><g><path d="M 2.5625 -12.9375 C 3.226562 -12.445312 3.757812 -11.882812 4.15625 -11.25 C 4.5625 -10.613281 4.820312 -9.945312 4.9375 -9.25 C 5.0625 -8.550781 5.03125 -7.832031 4.84375 -7.09375 C 4.664062 -6.363281 4.320312 -5.65625 3.8125 -4.96875 C 3.300781 -4.28125 2.722656 -3.742188 2.078125 -3.359375 C 1.441406 -2.972656 0.769531 -2.726562 0.0625 -2.625 C -0.644531 -2.519531 -1.359375 -2.566406 -2.078125 -2.765625 C -2.804688 -2.960938 -3.503906 -3.304688 -4.171875 -3.796875 C -4.828125 -4.273438 -5.351562 -4.832031 -5.75 -5.46875 C -6.15625 -6.101562 -6.414062 -6.773438 -6.53125 -7.484375 C -6.644531 -8.203125 -6.613281 -8.921875 -6.4375 -9.640625 C -6.257812 -10.367188 -5.914062 -11.078125 -5.40625 -11.765625 C -5.070312 -12.210938 -4.703125 -12.597656 -4.296875 -12.921875 C -3.890625 -13.253906 -3.460938 -13.519531 -3.015625 -13.71875 C -2.578125 -13.914062 -2.117188 -14.046875 -1.640625 -14.109375 C -1.171875 -14.171875 -0.691406 -14.164062 -0.203125 -14.09375 C 0.273438 -14.03125 0.742188 -13.898438 1.203125 -13.703125 C 1.671875 -13.515625 2.125 -13.257812 2.5625 -12.9375 Z M 1.296875 -11.21875 C 0.804688 -11.582031 0.320312 -11.84375 -0.15625 -12 C -0.644531 -12.15625 -1.117188 -12.207031 -1.578125 -12.15625 C -2.035156 -12.113281 -2.46875 -11.972656 -2.875 -11.734375 C -3.289062 -11.492188 -3.660156 -11.15625 -3.984375 -10.71875 C -4.316406 -10.269531 -4.535156 -9.816406 -4.640625 -9.359375 C -4.742188 -8.898438 -4.75 -8.441406 -4.65625 -7.984375 C -4.5625 -7.535156 -4.367188 -7.101562 -4.078125 -6.6875 C -3.785156 -6.269531 -3.394531 -5.878906 -2.90625 -5.515625 C -2.40625 -5.148438 -1.910156 -4.882812 -1.421875 -4.71875 C -0.929688 -4.5625 -0.457031 -4.507812 0 -4.5625 C 0.445312 -4.613281 0.875 -4.757812 1.28125 -5 C 1.6875 -5.238281 2.054688 -5.582031 2.390625 -6.03125 C 2.710938 -6.46875 2.925781 -6.914062 3.03125 -7.375 C 3.144531 -7.832031 3.15625 -8.285156 3.0625 -8.734375 C 2.976562 -9.179688 2.785156 -9.613281 2.484375 -10.03125 C 2.191406 -10.457031 1.796875 -10.851562 1.296875 -11.21875 Z M 1.296875 -11.21875 "/></g></g></g><g fill="#9d4edd" fill-opacity="1"><g transform="translate(323.569845, 271.4723)"><g><path d="M 2.484375 -7.59375 L 3.96875 -6.71875 L 0.640625 -1.078125 L -9 -6.78125 L -7.953125 -8.5625 L 0.203125 -3.734375 Z M 2.484375 -7.59375 "/></g></g></g><g fill="#9d4edd" fill-opacity="1"><g transform="translate(330.857311, 258.662422)"><g><path d="M 0.90625 -5.953125 C 1.070312 -6.304688 1.160156 -6.648438 1.171875 -6.984375 C 1.179688 -7.328125 1.125 -7.648438 1 -7.953125 C 0.875 -8.253906 0.675781 -8.53125 0.40625 -8.78125 C 0.132812 -9.03125 -0.191406 -9.242188 -0.578125 -9.421875 L -6.65625 -12.25 L -5.765625 -14.15625 L 0.3125 -11.328125 C 0.914062 -11.046875 1.425781 -10.6875 1.84375 -10.25 C 2.269531 -9.820312 2.582031 -9.335938 2.78125 -8.796875 C 2.988281 -8.265625 3.070312 -7.6875 3.03125 -7.0625 C 3 -6.445312 2.835938 -5.820312 2.546875 -5.1875 C 2.234375 -4.519531 1.851562 -3.972656 1.40625 -3.546875 C 0.957031 -3.117188 0.460938 -2.8125 -0.078125 -2.625 C -0.617188 -2.445312 -1.191406 -2.375 -1.796875 -2.40625 C -2.398438 -2.445312 -3.003906 -2.609375 -3.609375 -2.890625 L -9.6875 -5.71875 L -8.8125 -7.609375 L -2.734375 -4.78125 C -2.347656 -4.601562 -1.972656 -4.492188 -1.609375 -4.453125 C -1.242188 -4.421875 -0.90625 -4.453125 -0.59375 -4.546875 C -0.28125 -4.640625 0 -4.800781 0.25 -5.03125 C 0.507812 -5.269531 0.726562 -5.578125 0.90625 -5.953125 Z M 0.90625 -5.953125 "/></g></g></g><g fill="#9d4edd" fill-opacity="1"><g transform="translate(338.174648, 241.99139)"><g><path d="M -6.015625 -11.6875 L -7.125 -8.5 L 1.859375 -5.390625 L 1.1875 -3.40625 L -7.796875 -6.515625 L -8.90625 -3.328125 L -10.515625 -3.890625 L -7.625 -12.25 Z M -6.015625 -11.6875 "/></g></g></g><g fill="#9d4edd" fill-opacity="1"><g transform="translate(343.02652, 226.854119)"><g><path d="M 0.828125 -3.234375 L 0.3125 -1.203125 L -10.53125 -4 L -10.015625 -6.03125 Z M 0.828125 -3.234375 "/></g></g></g><g fill="#9d4edd" fill-opacity="1"><g transform="translate(345.720099, 215.936437)"><g><path d="M -3.609375 -12.6875 C -2.796875 -12.550781 -2.066406 -12.289062 -1.421875 -11.90625 C -0.773438 -11.53125 -0.238281 -11.054688 0.1875 -10.484375 C 0.613281 -9.921875 0.910156 -9.269531 1.078125 -8.53125 C 1.253906 -7.800781 1.269531 -7.015625 1.125 -6.171875 C 0.988281 -5.328125 0.722656 -4.585938 0.328125 -3.953125 C -0.0546875 -3.316406 -0.539062 -2.789062 -1.125 -2.375 C -1.71875 -1.957031 -2.378906 -1.671875 -3.109375 -1.515625 C -3.847656 -1.359375 -4.625 -1.347656 -5.4375 -1.484375 C -6.238281 -1.609375 -6.96875 -1.863281 -7.625 -2.25 C -8.28125 -2.632812 -8.816406 -3.113281 -9.234375 -3.6875 C -9.648438 -4.269531 -9.945312 -4.925781 -10.125 -5.65625 C -10.300781 -6.382812 -10.320312 -7.171875 -10.1875 -8.015625 C -10.09375 -8.566406 -9.9375 -9.082031 -9.71875 -9.5625 C -9.507812 -10.039062 -9.25 -10.460938 -8.9375 -10.828125 C -8.632812 -11.203125 -8.285156 -11.523438 -7.890625 -11.796875 C -7.503906 -12.078125 -7.082031 -12.296875 -6.625 -12.453125 C -6.164062 -12.609375 -5.679688 -12.707031 -5.171875 -12.75 C -4.671875 -12.789062 -4.148438 -12.769531 -3.609375 -12.6875 Z M -3.953125 -10.578125 C -4.566406 -10.671875 -5.125 -10.675781 -5.625 -10.59375 C -6.125 -10.507812 -6.566406 -10.34375 -6.953125 -10.09375 C -7.347656 -9.851562 -7.671875 -9.53125 -7.921875 -9.125 C -8.171875 -8.71875 -8.34375 -8.25 -8.4375 -7.71875 C -8.519531 -7.164062 -8.503906 -6.660156 -8.390625 -6.203125 C -8.285156 -5.753906 -8.085938 -5.347656 -7.796875 -4.984375 C -7.503906 -4.617188 -7.132812 -4.316406 -6.6875 -4.078125 C -6.238281 -3.847656 -5.707031 -3.6875 -5.09375 -3.59375 C -4.488281 -3.488281 -3.929688 -3.472656 -3.421875 -3.546875 C -2.910156 -3.628906 -2.460938 -3.796875 -2.078125 -4.046875 C -1.703125 -4.304688 -1.390625 -4.632812 -1.140625 -5.03125 C -0.890625 -5.425781 -0.722656 -5.898438 -0.640625 -6.453125 C -0.546875 -6.984375 -0.550781 -7.476562 -0.65625 -7.9375 C -0.769531 -8.40625 -0.96875 -8.816406 -1.25 -9.171875 C -1.53125 -9.523438 -1.898438 -9.820312 -2.359375 -10.0625 C -2.816406 -10.300781 -3.347656 -10.472656 -3.953125 -10.578125 Z M -3.953125 -10.578125 "/></g></g></g><g fill="#9d4edd" fill-opacity="1"><g transform="translate(348.423106, 196.843706)"><g><path d="M -10.671875 -11.203125 L 0.515625 -10.671875 L 0.46875 -9.609375 C 0.457031 -9.441406 0.421875 -9.300781 0.359375 -9.1875 C 0.304688 -9.082031 0.207031 -8.984375 0.0625 -8.890625 L -7.671875 -3.40625 C -7.328125 -3.414062 -7.007812 -3.414062 -6.71875 -3.40625 L 0.140625 -3.078125 L 0.0625 -1.25 L -11.125 -1.78125 L -11.078125 -2.875 C -11.066406 -2.957031 -11.054688 -3.03125 -11.046875 -3.09375 C -11.046875 -3.164062 -11.03125 -3.222656 -11 -3.265625 C -10.96875 -3.316406 -10.929688 -3.363281 -10.890625 -3.40625 C -10.847656 -3.457031 -10.789062 -3.503906 -10.71875 -3.546875 L -2.953125 -9.046875 C -3.128906 -9.046875 -3.304688 -9.046875 -3.484375 -9.046875 C -3.660156 -9.046875 -3.820312 -9.050781 -3.96875 -9.0625 L -10.765625 -9.375 Z M -10.671875 -11.203125 "/></g></g></g><g fill="#9d4edd" fill-opacity="1"><g transform="translate(348.89706, 178.217777)"><g><path d="M -9.53125 -6.71875 C -9.414062 -6.664062 -9.332031 -6.601562 -9.28125 -6.53125 C -9.226562 -6.457031 -9.203125 -6.375 -9.203125 -6.28125 C -9.191406 -6.164062 -9.222656 -6.039062 -9.296875 -5.90625 C -9.367188 -5.78125 -9.445312 -5.625 -9.53125 -5.4375 C -9.625 -5.257812 -9.707031 -5.050781 -9.78125 -4.8125 C -9.851562 -4.582031 -9.878906 -4.304688 -9.859375 -3.984375 C -9.847656 -3.691406 -9.800781 -3.441406 -9.71875 -3.234375 C -9.632812 -3.023438 -9.523438 -2.847656 -9.390625 -2.703125 C -9.253906 -2.554688 -9.097656 -2.453125 -8.921875 -2.390625 C -8.742188 -2.335938 -8.550781 -2.316406 -8.34375 -2.328125 C -8.082031 -2.335938 -7.867188 -2.421875 -7.703125 -2.578125 C -7.535156 -2.734375 -7.394531 -2.9375 -7.28125 -3.1875 C -7.164062 -3.4375 -7.066406 -3.71875 -6.984375 -4.03125 C -6.910156 -4.351562 -6.828125 -4.675781 -6.734375 -5 C -6.640625 -5.320312 -6.523438 -5.640625 -6.390625 -5.953125 C -6.265625 -6.273438 -6.097656 -6.5625 -5.890625 -6.8125 C -5.679688 -7.070312 -5.414062 -7.285156 -5.09375 -7.453125 C -4.78125 -7.617188 -4.394531 -7.710938 -3.9375 -7.734375 C -3.425781 -7.765625 -2.941406 -7.703125 -2.484375 -7.546875 C -2.035156 -7.398438 -1.640625 -7.171875 -1.296875 -6.859375 C -0.953125 -6.546875 -0.671875 -6.148438 -0.453125 -5.671875 C -0.242188 -5.203125 -0.125 -4.660156 -0.09375 -4.046875 C -0.0703125 -3.691406 -0.0820312 -3.335938 -0.125 -2.984375 C -0.175781 -2.640625 -0.257812 -2.300781 -0.375 -1.96875 C -0.488281 -1.644531 -0.628906 -1.34375 -0.796875 -1.0625 C -0.960938 -0.78125 -1.148438 -0.519531 -1.359375 -0.28125 L -2.390625 -0.84375 C -2.472656 -0.894531 -2.539062 -0.957031 -2.59375 -1.03125 C -2.644531 -1.113281 -2.675781 -1.203125 -2.6875 -1.296875 C -2.695312 -1.421875 -2.648438 -1.5625 -2.546875 -1.71875 C -2.441406 -1.875 -2.332031 -2.0625 -2.21875 -2.28125 C -2.101562 -2.5 -2 -2.75 -1.90625 -3.03125 C -1.8125 -3.3125 -1.773438 -3.644531 -1.796875 -4.03125 C -1.828125 -4.625 -1.988281 -5.070312 -2.28125 -5.375 C -2.582031 -5.675781 -3 -5.8125 -3.53125 -5.78125 C -3.820312 -5.769531 -4.054688 -5.6875 -4.234375 -5.53125 C -4.421875 -5.382812 -4.566406 -5.1875 -4.671875 -4.9375 C -4.785156 -4.6875 -4.878906 -4.40625 -4.953125 -4.09375 C -5.023438 -3.78125 -5.101562 -3.457031 -5.1875 -3.125 C -5.28125 -2.789062 -5.390625 -2.46875 -5.515625 -2.15625 C -5.640625 -1.84375 -5.804688 -1.554688 -6.015625 -1.296875 C -6.234375 -1.046875 -6.515625 -0.835938 -6.859375 -0.671875 C -7.203125 -0.503906 -7.628906 -0.410156 -8.140625 -0.390625 C -8.546875 -0.359375 -8.945312 -0.414062 -9.34375 -0.5625 C -9.738281 -0.707031 -10.09375 -0.925781 -10.40625 -1.21875 C -10.726562 -1.507812 -10.988281 -1.878906 -11.1875 -2.328125 C -11.394531 -2.773438 -11.515625 -3.296875 -11.546875 -3.890625 C -11.585938 -4.546875 -11.515625 -5.15625 -11.328125 -5.71875 C -11.148438 -6.28125 -10.890625 -6.769531 -10.546875 -7.1875 Z M -9.53125 -6.71875 "/></g></g></g><g fill="#ff8500" fill-opacity="1"><g transform="translate(9.705006, 152.135616)"><g><path d="M 9.328125 -24.8125 L 10.90625 -24.8125 C 11.28125 -24.8125 11.625 -24.6875 11.9375 -24.4375 C 12.25 -24.195312 12.445312 -23.894531 12.53125 -23.53125 C 13.695312 -19.300781 15.425781 -12.953125 17.71875 -4.484375 L 17.6875 -4.484375 C 18.976562 0.203125 20.894531 7.222656 23.4375 16.578125 C 23.457031 16.648438 23.46875 16.726562 23.46875 16.8125 C 23.46875 17.394531 23.054688 17.832031 22.234375 18.125 C 21.941406 18.207031 21.6875 18.25 21.46875 18.25 C 20.90625 18.25 20.46875 17.992188 20.15625 17.484375 C 18.882812 12.804688 16.96875 5.785156 14.40625 -3.578125 L 14.3125 -3.984375 C 14.0625 -4.867188 13.632812 -5.332031 13.03125 -5.375 L 12.171875 -5.484375 L 9.96875 -5.484375 C 9.226562 -5.503906 8.488281 -5.515625 7.75 -5.515625 C 7.0625 -5.515625 6.597656 -5.300781 6.359375 -4.875 C 6.109375 -4.4375 5.9375 -4.101562 5.84375 -3.875 C 5.644531 -3.164062 5.347656 -2.109375 4.953125 -0.703125 C 4.835938 -0.390625 4.476562 -0.1875 3.875 -0.09375 C 3.300781 0.0078125 2.789062 -0.0820312 2.34375 -0.375 C 2.144531 -0.476562 1.976562 -0.628906 1.84375 -0.828125 C 1.726562 -1.054688 1.660156 -1.316406 1.640625 -1.609375 L 1.9375 -2.703125 C 2.132812 -3.421875 2.367188 -4.257812 2.640625 -5.21875 C 2.953125 -6.351562 3.253906 -7.441406 3.546875 -8.484375 L 3.9375 -10.0625 C 4.789062 -13.050781 6.039062 -17.539062 7.6875 -23.53125 C 7.78125 -23.863281 7.957031 -24.144531 8.21875 -24.375 C 8.507812 -24.613281 8.820312 -24.757812 9.15625 -24.8125 Z M 8.59375 -8.953125 L 11.328125 -8.953125 C 11.535156 -8.953125 11.835938 -9.019531 12.234375 -9.15625 C 12.523438 -9.25 12.671875 -9.484375 12.671875 -9.859375 C 12.671875 -10.035156 12.640625 -10.238281 12.578125 -10.46875 C 12.265625 -11.625 11.796875 -13.347656 11.171875 -15.640625 C 11.117188 -15.910156 10.835938 -16.171875 10.328125 -16.421875 C 10.191406 -16.460938 10.054688 -16.484375 9.921875 -16.484375 C 9.585938 -16.503906 9.300781 -16.25 9.0625 -15.71875 L 7.65625 -10.703125 C 7.613281 -10.546875 7.601562 -10.378906 7.625 -10.203125 C 7.625 -10.015625 7.632812 -9.820312 7.65625 -9.625 C 7.75 -9.175781 8.0625 -8.953125 8.59375 -8.953125 Z M 12.34375 -33.0625 C 12.363281 -33.039062 12.382812 -33.03125 12.40625 -33.03125 C 12.445312 -33.03125 12.476562 -33.019531 12.5 -33 L 12.578125 -32.9375 C 12.578125 -32.90625 12.585938 -32.878906 12.609375 -32.859375 C 12.609375 -32.835938 12.617188 -32.828125 12.640625 -32.828125 L 12.640625 -32.765625 C 15.203125 -23.628906 19.035156 -9.921875 24.140625 8.359375 C 24.160156 8.378906 24.171875 8.410156 24.171875 8.453125 L 24.171875 8.53125 C 24.171875 8.570312 24.160156 8.601562 24.140625 8.625 C 24.140625 8.644531 24.128906 8.664062 24.109375 8.6875 L 23.96875 8.828125 L 23.90625 8.828125 C 23.863281 8.847656 23.828125 8.859375 23.796875 8.859375 C 23.773438 8.859375 23.742188 8.847656 23.703125 8.828125 C 23.679688 8.828125 23.660156 8.816406 23.640625 8.796875 C 23.617188 8.796875 23.59375 8.785156 23.5625 8.765625 C 23.539062 8.734375 23.519531 8.695312 23.5 8.65625 L 23.5 8.625 C 23.476562 8.625 23.46875 8.613281 23.46875 8.59375 C 20.925781 -0.539062 17.09375 -14.257812 11.96875 -32.5625 C 11.96875 -32.582031 11.957031 -32.601562 11.9375 -32.625 L 11.9375 -32.734375 C 11.9375 -32.753906 11.945312 -32.773438 11.96875 -32.796875 C 11.96875 -32.835938 11.976562 -32.867188 12 -32.890625 C 12 -32.921875 12.007812 -32.945312 12.03125 -32.96875 C 12.050781 -32.988281 12.078125 -33 12.109375 -33 C 12.128906 -33.019531 12.148438 -33.03125 12.171875 -33.03125 L 12.203125 -33.03125 L 12.234375 -33.0625 Z M 12.34375 -33.0625 "/></g></g></g><g fill="#ff8500" fill-opacity="1"><g transform="translate(326.885726, 156.736732)"><g><path d="M -3.609375 -24.703125 C -0.398438 -24.679688 6.050781 -24.671875 15.75 -24.671875 C 15.882812 -24.691406 16.015625 -24.691406 16.140625 -24.671875 C 16.296875 -24.671875 16.441406 -24.648438 16.578125 -24.609375 C 16.710938 -24.566406 16.835938 -24.507812 16.953125 -24.4375 C 17.085938 -24.351562 17.195312 -24.253906 17.28125 -24.140625 C 17.375 -24.046875 17.453125 -23.929688 17.515625 -23.796875 C 17.585938 -23.671875 17.644531 -23.539062 17.6875 -23.40625 L 17.75 -23.203125 L 17.75 -23 C 17.75 -22.257812 17.738281 -21.15625 17.71875 -19.6875 C 17.738281 -19.550781 17.738281 -19.40625 17.71875 -19.25 C 17.695312 -19.125 17.664062 -18.992188 17.625 -18.859375 C 17.59375 -18.785156 17.554688 -18.71875 17.515625 -18.65625 C 17.472656 -18.59375 17.441406 -18.535156 17.421875 -18.484375 C 15.253906 -15.585938 12.007812 -11.234375 7.6875 -5.421875 C 7.601562 -5.128906 7.59375 -4.882812 7.65625 -4.6875 C 7.695312 -4.476562 7.785156 -4.296875 7.921875 -4.140625 C 8.140625 -3.878906 8.441406 -3.703125 8.828125 -3.609375 C 9.222656 -3.523438 9.507812 -3.484375 9.6875 -3.484375 L 24.84375 -3.484375 C 25.507812 -3.273438 25.84375 -2.726562 25.84375 -1.84375 L 25.84375 -1.609375 C 25.78125 -0.578125 25.488281 -0.0625 24.96875 -0.0625 L 5.453125 -0.0625 C 5.296875 -0.0625 5.195312 -0.0507812 5.15625 -0.03125 C 5.101562 -0.0078125 5.054688 -0.0195312 5.015625 -0.0625 C 4.972656 -0.0820312 4.992188 -0.09375 5.078125 -0.09375 L 5.34375 -0.09375 C 5.21875 -0.0703125 5.128906 -0.0703125 5.078125 -0.09375 C 5.035156 -0.125 4.984375 -0.113281 4.921875 -0.0625 C 4.867188 -0.0195312 4.898438 -0.0078125 5.015625 -0.03125 L 5.25 -0.03125 C 5.113281 -0.03125 5.023438 -0.0390625 4.984375 -0.0625 C 4.960938 -0.0820312 4.914062 -0.09375 4.84375 -0.09375 C 4.78125 -0.0703125 4.804688 -0.0625 4.921875 -0.0625 C 5.023438 -0.0390625 5.113281 -0.03125 5.1875 -0.03125 C 5.050781 -0.0507812 4.960938 -0.0625 4.921875 -0.0625 C 4.890625 -0.0820312 4.84375 -0.09375 4.78125 -0.09375 C 4.757812 -0.125 4.769531 -0.125 4.8125 -0.09375 L 4.921875 -0.09375 C 4.785156 -0.125 4.648438 -0.160156 4.515625 -0.203125 C 4.378906 -0.242188 4.253906 -0.3125 4.140625 -0.40625 C 4.035156 -0.488281 3.9375 -0.585938 3.84375 -0.703125 C 3.757812 -0.816406 3.679688 -0.9375 3.609375 -1.0625 C 3.546875 -1.195312 3.503906 -1.332031 3.484375 -1.46875 C 3.484375 -1.601562 3.46875 -1.75 3.4375 -1.90625 C 3.4375 -1.96875 3.453125 -2.035156 3.484375 -2.109375 C 3.523438 -2.171875 3.546875 -2.238281 3.546875 -2.3125 L 3.546875 -4.84375 C 3.546875 -4.976562 3.554688 -5.113281 3.578125 -5.25 C 3.597656 -5.40625 3.628906 -5.550781 3.671875 -5.6875 C 3.671875 -5.75 3.695312 -5.816406 3.75 -5.890625 C 3.789062 -5.929688 3.832031 -5.984375 3.875 -6.046875 C 6.039062 -8.941406 9.285156 -13.3125 13.609375 -19.15625 C 13.691406 -19.46875 13.722656 -19.75 13.703125 -20 C 13.660156 -20.21875 13.582031 -20.40625 13.46875 -20.5625 C 13.175781 -20.914062 12.8125 -21.128906 12.375 -21.203125 L 11.671875 -21.296875 L -3.546875 -21.296875 C -4.253906 -21.453125 -4.609375 -22.019531 -4.609375 -23 L -4.609375 -23.03125 C -4.609375 -23.988281 -4.273438 -24.546875 -3.609375 -24.703125 Z M 1.375 -26.484375 L 17.515625 -26.484375 C 18.023438 -26.484375 18.445312 -26.40625 18.78125 -26.25 C 19.144531 -26.113281 19.414062 -25.921875 19.59375 -25.671875 C 19.769531 -25.429688 19.890625 -25.234375 19.953125 -25.078125 C 20.023438 -24.898438 20.039062 -24.585938 20 -24.140625 L 20 -19.859375 C 20.039062 -19.234375 19.972656 -18.6875 19.796875 -18.21875 C 19.617188 -17.769531 19.382812 -17.300781 19.09375 -16.8125 C 18.957031 -16.65625 18.546875 -16.125 17.859375 -15.21875 C 17.160156 -14.300781 16.390625 -13.296875 15.546875 -12.203125 L 14.46875 -10.734375 C 14.113281 -10.265625 13.769531 -9.816406 13.4375 -9.390625 C 12.8125 -8.566406 12.289062 -7.878906 11.875 -7.328125 C 11.46875 -6.765625 11.253906 -6.460938 11.234375 -6.421875 C 11.171875 -6.304688 11.125 -6.191406 11.09375 -6.078125 C 11.070312 -5.953125 11.070312 -5.84375 11.09375 -5.75 C 11.125 -5.6875 11.160156 -5.628906 11.203125 -5.578125 C 11.222656 -5.535156 11.265625 -5.492188 11.328125 -5.453125 C 11.398438 -5.398438 11.476562 -5.375 11.5625 -5.375 C 11.675781 -5.351562 11.800781 -5.34375 11.9375 -5.34375 L 27.71875 -5.34375 C 27.738281 -5.320312 27.769531 -5.300781 27.8125 -5.28125 C 27.832031 -5.28125 27.84375 -5.257812 27.84375 -5.21875 L 27.921875 -5.15625 C 27.921875 -5.125 27.929688 -5.097656 27.953125 -5.078125 L 27.953125 -4.984375 C 27.929688 -4.960938 27.921875 -4.941406 27.921875 -4.921875 C 27.921875 -4.867188 27.90625 -4.832031 27.875 -4.8125 L 27.8125 -4.75 C 27.789062 -4.726562 27.769531 -4.71875 27.75 -4.71875 C 27.726562 -4.695312 27.707031 -4.6875 27.6875 -4.6875 L 12.03125 -4.6875 C 11.96875 -4.65625 11.898438 -4.640625 11.828125 -4.640625 C 11.703125 -4.640625 11.582031 -4.65625 11.46875 -4.6875 C 11.289062 -4.726562 11.125 -4.78125 10.96875 -4.84375 C 10.832031 -4.9375 10.71875 -5.039062 10.625 -5.15625 C 10.539062 -5.28125 10.488281 -5.410156 10.46875 -5.546875 C 10.375 -5.816406 10.363281 -6.085938 10.4375 -6.359375 C 10.5 -6.597656 10.617188 -6.816406 10.796875 -7.015625 L 10.796875 -7.046875 C 12.441406 -9.234375 14.914062 -12.5 18.21875 -16.84375 C 18.59375 -17.40625 18.882812 -17.882812 19.09375 -18.28125 C 19.269531 -18.6875 19.347656 -19.179688 19.328125 -19.765625 C 19.304688 -19.785156 19.296875 -19.804688 19.296875 -19.828125 L 19.296875 -24.140625 C 19.296875 -24.359375 19.28125 -24.566406 19.25 -24.765625 C 19.207031 -24.953125 19.144531 -25.125 19.0625 -25.28125 C 18.945312 -25.40625 18.765625 -25.515625 18.515625 -25.609375 C 18.296875 -25.722656 17.960938 -25.78125 17.515625 -25.78125 L 1.234375 -25.78125 C 1.191406 -25.800781 1.160156 -25.8125 1.140625 -25.8125 L 1.0625 -25.875 C 1.039062 -25.894531 1.03125 -25.914062 1.03125 -25.9375 C 1.007812 -25.96875 1 -26.003906 1 -26.046875 L 1 -26.203125 C 1 -26.234375 1.007812 -26.257812 1.03125 -26.28125 L 1.109375 -26.34375 C 1.109375 -26.363281 1.128906 -26.382812 1.171875 -26.40625 C 1.191406 -26.425781 1.210938 -26.4375 1.234375 -26.4375 L 1.296875 -26.4375 L 1.34375 -26.484375 Z M 1.375 -26.484375 "/></g></g></g><g fill="#ff8500" fill-opacity="1"><g transform="translate(134.30418, 251.390902)"><g><path d="M 1.1875 -1.078125 L 2.9375 -1.640625 L 2.9375 -15.390625 L 1.1875 -15.953125 L 1.1875 -17.03125 L 12.421875 -17.03125 L 12.0625 -12.078125 L 10.53125 -12.078125 L 10.21875 -15.640625 L 5.5625 -15.25 L 5.5625 -9.65625 L 9.6875 -9.515625 L 9.6875 -8.1875 L 5.5625 -8.046875 L 5.5625 -1.828125 L 10.46875 -1.390625 L 10.921875 -5.046875 L 12.453125 -5.046875 L 12.5625 0 L 1.1875 0 Z M 1.1875 -1.078125 "/></g></g></g><g fill="#ff8500" fill-opacity="1"><g transform="translate(147.708117, 251.390902)"><g><path d="M 6.21875 0.25 C 5.820312 0.25 5.03125 0.207031 3.84375 0.125 C 2.65625 0.0390625 1.75 -0.0351562 1.125 -0.109375 L 1.1875 -4.171875 L 2.59375 -4.203125 L 3.1875 -2.0625 C 3.625 -1.90625 4.140625 -1.765625 4.734375 -1.640625 C 5.328125 -1.523438 5.765625 -1.46875 6.046875 -1.46875 C 6.191406 -1.46875 6.375 -1.671875 6.59375 -2.078125 C 6.8125 -2.492188 6.921875 -2.863281 6.921875 -3.1875 C 6.921875 -3.53125 6.835938 -3.816406 6.671875 -4.046875 C 6.515625 -4.285156 6.265625 -4.507812 5.921875 -4.71875 C 5.585938 -4.9375 5.015625 -5.265625 4.203125 -5.703125 C 3.054688 -6.328125 2.265625 -6.875 1.828125 -7.34375 C 1.398438 -7.8125 1.1875 -8.375 1.1875 -9.03125 C 1.1875 -9.675781 1.234375 -10.140625 1.328125 -10.421875 C 1.628906 -10.890625 2.128906 -11.414062 2.828125 -12 C 3.535156 -12.582031 4.039062 -12.875 4.34375 -12.875 C 4.96875 -12.875 5.773438 -12.847656 6.765625 -12.796875 C 7.753906 -12.753906 8.507812 -12.707031 9.03125 -12.65625 L 8.953125 -9.203125 L 7.375 -9.203125 L 7.171875 -10.703125 C 7.023438 -10.753906 6.535156 -10.84375 5.703125 -10.96875 C 4.878906 -11.09375 4.363281 -11.15625 4.15625 -11.15625 C 3.738281 -11.15625 3.53125 -10.757812 3.53125 -9.96875 C 3.53125 -9.613281 3.664062 -9.304688 3.9375 -9.046875 C 4.207031 -8.796875 4.515625 -8.566406 4.859375 -8.359375 C 5.210938 -8.148438 5.445312 -8.007812 5.5625 -7.9375 L 6.328125 -7.484375 C 7.335938 -6.921875 8.140625 -6.390625 8.734375 -5.890625 C 9.328125 -5.390625 9.625 -4.816406 9.625 -4.171875 C 9.625 -3.742188 9.5625 -3.265625 9.4375 -2.734375 C 9.132812 -2.191406 8.617188 -1.554688 7.890625 -0.828125 C 7.160156 -0.109375 6.601562 0.25 6.21875 0.25 Z M 6.21875 0.25 "/></g></g></g><g fill="#ff8500" fill-opacity="1"><g transform="translate(157.95154, 251.390902)"><g><path d="M 4.03125 0.25 C 3.832031 0.25 3.5625 0.113281 3.21875 -0.15625 C 2.875 -0.425781 2.578125 -0.738281 2.328125 -1.09375 C 2.078125 -1.457031 1.953125 -1.742188 1.953125 -1.953125 L 1.953125 -11.15625 L 0.140625 -11.15625 L 0.140625 -12 L 1.953125 -12.90625 L 3.53125 -14.828125 C 3.695312 -14.828125 4.023438 -14.691406 4.515625 -14.421875 L 4.515625 -12.65625 L 7.25 -12.65625 L 7.25 -11.015625 L 4.515625 -11.015625 L 4.515625 -3.1875 C 4.515625 -2.601562 4.5625 -2.207031 4.65625 -2 C 4.75 -1.789062 4.925781 -1.6875 5.1875 -1.6875 L 7.515625 -1.640625 L 7.515625 -0.28125 C 6.960938 -0.164062 6.289062 -0.0507812 5.5 0.0625 C 4.707031 0.1875 4.21875 0.25 4.03125 0.25 Z M 4.03125 0.25 "/></g></g></g><g fill="#ff8500" fill-opacity="1"><g transform="translate(165.852804, 251.390902)"><g/></g></g><g fill="#ff8500" fill-opacity="1"><g transform="translate(170.339597, 251.390902)"><g><path d="M 1.09375 -1.40625 L 5.875 -7.234375 C 6.4375 -7.921875 6.816406 -8.460938 7.015625 -8.859375 C 7.210938 -9.253906 7.3125 -9.691406 7.3125 -10.171875 C 7.3125 -10.546875 7.242188 -10.898438 7.109375 -11.234375 C 6.984375 -11.578125 6.828125 -11.75 6.640625 -11.75 C 6.484375 -11.75 6.0625 -11.679688 5.375 -11.546875 C 4.6875 -11.410156 4.15625 -11.296875 3.78125 -11.203125 L 3.5 -8.859375 L 2.09375 -8.859375 L 1.890625 -12.796875 C 2.515625 -12.921875 3.40625 -13.050781 4.5625 -13.1875 C 5.71875 -13.320312 6.472656 -13.390625 6.828125 -13.390625 C 7.773438 -13.390625 8.578125 -13.160156 9.234375 -12.703125 C 9.890625 -12.253906 10.21875 -11.539062 10.21875 -10.5625 C 10.21875 -9.976562 10.050781 -9.347656 9.71875 -8.671875 C 9.394531 -7.992188 9 -7.367188 8.53125 -6.796875 L 4.75 -2.265625 L 4.75 -2.09375 L 9.140625 -2.09375 L 9.34375 -4.09375 L 10.78125 -4.09375 L 10.90625 0 L 1.328125 0 Z M 1.09375 -1.40625 "/></g></g></g><g fill="#ff8500" fill-opacity="1"><g transform="translate(182.755875, 251.390902)"><g><path d="M 6.859375 0.25 C 4.992188 0.25 3.597656 -0.335938 2.671875 -1.515625 C 1.753906 -2.691406 1.296875 -4.378906 1.296875 -6.578125 C 1.296875 -7.722656 1.472656 -8.804688 1.828125 -9.828125 C 2.191406 -10.859375 2.785156 -11.707031 3.609375 -12.375 C 4.441406 -13.050781 5.503906 -13.390625 6.796875 -13.390625 C 8.660156 -13.390625 10.046875 -12.800781 10.953125 -11.625 C 11.859375 -10.457031 12.3125 -8.773438 12.3125 -6.578125 C 12.3125 -5.429688 12.128906 -4.335938 11.765625 -3.296875 C 11.410156 -2.265625 10.828125 -1.414062 10.015625 -0.75 C 9.210938 -0.0820312 8.160156 0.25 6.859375 0.25 Z M 6.328125 -1.328125 C 6.847656 -1.328125 7.320312 -1.40625 7.75 -1.5625 C 8.175781 -1.726562 8.640625 -1.960938 9.140625 -2.265625 C 9.242188 -2.691406 9.3125 -3.226562 9.34375 -3.875 C 9.382812 -4.53125 9.40625 -5.429688 9.40625 -6.578125 C 9.40625 -8.484375 9.238281 -9.828125 8.90625 -10.609375 C 8.570312 -11.398438 8.019531 -11.796875 7.25 -11.796875 C 6.332031 -11.796875 5.410156 -11.488281 4.484375 -10.875 C 4.359375 -10.414062 4.28125 -9.867188 4.25 -9.234375 C 4.21875 -8.609375 4.203125 -7.722656 4.203125 -6.578125 C 4.203125 -4.679688 4.363281 -3.332031 4.6875 -2.53125 C 5.007812 -1.726562 5.554688 -1.328125 6.328125 -1.328125 Z M 6.328125 -1.328125 "/></g></g></g><g fill="#ff8500" fill-opacity="1"><g transform="translate(196.357337, 251.390902)"><g><path d="M 1.09375 -1.40625 L 5.875 -7.234375 C 6.4375 -7.921875 6.816406 -8.460938 7.015625 -8.859375 C 7.210938 -9.253906 7.3125 -9.691406 7.3125 -10.171875 C 7.3125 -10.546875 7.242188 -10.898438 7.109375 -11.234375 C 6.984375 -11.578125 6.828125 -11.75 6.640625 -11.75 C 6.484375 -11.75 6.0625 -11.679688 5.375 -11.546875 C 4.6875 -11.410156 4.15625 -11.296875 3.78125 -11.203125 L 3.5 -8.859375 L 2.09375 -8.859375 L 1.890625 -12.796875 C 2.515625 -12.921875 3.40625 -13.050781 4.5625 -13.1875 C 5.71875 -13.320312 6.472656 -13.390625 6.828125 -13.390625 C 7.773438 -13.390625 8.578125 -13.160156 9.234375 -12.703125 C 9.890625 -12.253906 10.21875 -11.539062 10.21875 -10.5625 C 10.21875 -9.976562 10.050781 -9.347656 9.71875 -8.671875 C 9.394531 -7.992188 9 -7.367188 8.53125 -6.796875 L 4.75 -2.265625 L 4.75 -2.09375 L 9.140625 -2.09375 L 9.34375 -4.09375 L 10.78125 -4.09375 L 10.90625 0 L 1.328125 0 Z M 1.09375 -1.40625 "/></g></g></g><g fill="#ff8500" fill-opacity="1"><g transform="translate(208.773615, 251.390902)"><g><path d="M 7.6875 -1.21875 L 0.8125 -1.21875 L 0.65625 -2.59375 C 1.3125 -3.945312 2.113281 -5.71875 3.0625 -7.90625 C 4.007812 -10.09375 4.773438 -11.925781 5.359375 -13.40625 L 7.59375 -12.484375 L 7.59375 -11.890625 C 7.175781 -10.984375 6.488281 -9.582031 5.53125 -7.6875 C 4.570312 -5.800781 3.8125 -4.359375 3.25 -3.359375 L 3.296875 -3.140625 L 7.6875 -3.140625 L 7.6875 -7 L 9.578125 -7.703125 L 10.109375 -7.515625 L 10.109375 -3.140625 L 12.03125 -3.140625 L 12.03125 -1.21875 L 10.109375 -1.21875 L 10.109375 2.546875 L 7.6875 2.546875 Z M 7.6875 -1.21875 "/></g></g></g></svg>